;TYPE=PLATED
;Layer: PTH_Through
;EasyEDA Pro v3.2.148, 2026-08-19 14:38:13
;Gerber Generator version 0.3
M48
METRIC,LZ,0000.00000
;Hole size 1 = 0.30500 METRIC
T01C0.30500
;Hole size 2 = 0.30500 METRIC
T02C0.30500
;Hole size 3 = 0.80000 METRIC
T03C0.80000
;Hole size 4 = 1.00000 METRIC
T04C1.00000
;Hole size 5 = 1.19990 METRIC
T05C1.19990
;Hole size 6 = 1.20000 METRIC
T06C1.20000
;Hole size 7 = 1.30002 METRIC
T07C1.30002
;Hole size 8 = 1.70002 METRIC
T08C1.70002
;Hole size 9 = 1.80000 METRIC
T09C1.80000
;Hole size 10 = 2.20000 METRIC
T10C2.20000
%
G05
G90
T01
X49.11043Y-57.50187
X46.10001Y-46.8
X48.70688Y-48.50674
X54.60001Y-32.3
X27.60001Y-23.3
X31.60001Y-23.3
X31.60001Y-27.3
X27.60001Y-27.3
X24.10001Y-33.17866
X33.10001Y-32.3
T02
X46.85504Y-79.34584
X42.30985Y-55.96469
X46.88184Y-63.07668
X67.7098Y-99.1446
X38.78296Y-49.9725
T03
X69.10001Y-24.7G85X69.10001Y-27.9
X74.1Y-24.7G85X74.1Y-27.9
T04
X57.09975Y-27.8
X52.09976Y-27.8
X21.35007Y-27.79669
X17.84995Y-27.79669
X31.35001Y-74.79999G85X33.84998Y-74.79999
T05
X55.54693Y-58.60848
X55.54693Y-73.84848
T06
X34.56002Y-114.8G85X33.76002Y-114.8
X29.00001Y-114.8G85X28.20001Y-114.8
X23.44Y-114.8G85X22.64Y-114.8
X71.56002Y-114.8G85X70.76002Y-114.8
X66.00001Y-114.8G85X65.20001Y-114.8
X60.44Y-114.8G85X59.64Y-114.8
T07
X18.80002Y-74.79999
X18.80002Y-62.80001
T08
X16.60002Y-68.40002G85X16.60002Y-69.19999
T09
X44.09983Y-119.4365
X13.09984Y-119.5635
X81.09983Y-119.4365
X50.09984Y-119.5635
T10
X64.46693Y-71.32692
X64.46693Y-61.16692
X74.62693Y-61.16692
X74.62693Y-71.32692
X30.68001Y-43.22
X30.68001Y-53.38
X20.52001Y-53.38
X20.52001Y-43.22
M30