G04 Layer: BottomLayer*
G04 EasyEDA Pro v3.2.148, 2026-08-19 15:09:58*
G04 Gerber Generator version 0.3*
G04 Scale: 100 percent, Rotated: No, Reflected: No*
G04 Dimensions in millimeters*
G04 Leading zeros omitted, absolute positions, 4 integers and 5 decimals*
G04 Generated by one-click*
G04 Object Configs: Pad,Via,Track,Text,Image,Dimension,BoardOutline,BoardCutout,CopperFilled,SolidRegion,FPCStiffener,Line,PlaneZone,ComponentProperty,ComponentSilkscreen,TearDrop*
G04 Layer Configs: 1,2,3,4,5,6,7,8,9,10,11,13,14,56*
G04 Copper Areas: 44*
%FSLAX45Y45*%
%MOMM*%
%ADD10C,0.2032*%
%ADD11C,0.254*%
%ADD12C,1.8*%
%ADD13C,1.6*%
%ADD14R,2.79999X2.0*%
%ADD15O,2.79999X2.0*%
%ADD16C,3.29999*%
%ADD17O,2.49999X3.19999*%
%ADD18O,4.2008X1.5*%
%ADD19O,4.19999X1.5*%
%ADD20O,1.6X4.99999*%
%ADD21C,2.99999*%
%ADD22C,0.61*%
%ADD23C,8.89*%
%ADD24C,0.508*%
G75*


G04 Copper Start*
G36*
G01X1045815Y-2083200D02*
G01X1047519Y-2059379D01*
G01X1052595Y-2036042D01*
G01X1060941Y-2013665D01*
G01X1072387Y-1992704D01*
G01X1086699Y-1973586D01*
G01X1103586Y-1956698D01*
G01X1122705Y-1942386D01*
G01X1143666Y-1930940D01*
G01X1166043Y-1922594D01*
G01X1189379Y-1917518D01*
G01X1213201Y-1915814D01*
G01X8206801Y-1915814D01*
G01X8230622Y-1917518D01*
G01X8253959Y-1922594D01*
G01X8276336Y-1930940D01*
G01X8297297Y-1942386D01*
G01X8316415Y-1956698D01*
G01X8333303Y-1973586D01*
G01X8347615Y-1992704D01*
G01X8359061Y-2013665D01*
G01X8367407Y-2036042D01*
G01X8372483Y-2059379D01*
G01X8374187Y-2083200D01*
G01X8374187Y-11876800D01*
G01X8372483Y-11900621D01*
G01X8367407Y-11923958D01*
G01X8359061Y-11946335D01*
G01X8347615Y-11967296D01*
G01X8333303Y-11986414D01*
G01X8316415Y-12003302D01*
G01X8297297Y-12017614D01*
G01X8276336Y-12029060D01*
G01X8253959Y-12037406D01*
G01X8230622Y-12042482D01*
G01X8206801Y-12044186D01*
G01X1213201Y-12044186D01*
G01X1189379Y-12042482D01*
G01X1166043Y-12037406D01*
G01X1143666Y-12029060D01*
G01X1122705Y-12017614D01*
G01X1103586Y-12003302D01*
G01X1086699Y-11986414D01*
G01X1072387Y-11967296D01*
G01X1060941Y-11946335D01*
G01X1052595Y-11923958D01*
G01X1047519Y-11900621D01*
G01X1045815Y-11876800D01*
G01X1045815Y-11831351D01*
G01X1124160Y-11831351D01*
G01X1126051Y-11857795D01*
G01X1131687Y-11883701D01*
G01X1140951Y-11908541D01*
G01X1153657Y-11931809D01*
G01X1169545Y-11953033D01*
G01X1188291Y-11971779D01*
G01X1209515Y-11987667D01*
G01X1232784Y-12000373D01*
G01X1257624Y-12009638D01*
G01X1283529Y-12015273D01*
G01X1309974Y-12017164D01*
G01X1336418Y-12015273D01*
G01X1362323Y-12009638D01*
G01X1387163Y-12000373D01*
G01X1410432Y-11987667D01*
G01X1431656Y-11971779D01*
G01X1450402Y-11953033D01*
G01X1466290Y-11931809D01*
G01X1478996Y-11908541D01*
G01X1488260Y-11883701D01*
G01X1493896Y-11857795D01*
G01X1495787Y-11831351D01*
G01X1495787Y-11831351D01*
G01X1494879Y-11818651D01*
G01X4224179Y-11818651D01*
G01X4226070Y-11845095D01*
G01X4231706Y-11871001D01*
G01X4240971Y-11895841D01*
G01X4253676Y-11919109D01*
G01X4269564Y-11940333D01*
G01X4288311Y-11959079D01*
G01X4309534Y-11974967D01*
G01X4332803Y-11987673D01*
G01X4357643Y-11996938D01*
G01X4383549Y-12002573D01*
G01X4409993Y-12004464D01*
G01X4436437Y-12002573D01*
G01X4462342Y-11996938D01*
G01X4487183Y-11987673D01*
G01X4510451Y-11974967D01*
G01X4531675Y-11959079D01*
G01X4550421Y-11940333D01*
G01X4566309Y-11919109D01*
G01X4579015Y-11895841D01*
G01X4588280Y-11871001D01*
G01X4593915Y-11845095D01*
G01X4594898Y-11831351D01*
G01X4824160Y-11831351D01*
G01X4826051Y-11857795D01*
G01X4831687Y-11883701D01*
G01X4840951Y-11908541D01*
G01X4853657Y-11931809D01*
G01X4869545Y-11953033D01*
G01X4888291Y-11971779D01*
G01X4909515Y-11987667D01*
G01X4932784Y-12000373D01*
G01X4957624Y-12009638D01*
G01X4983529Y-12015273D01*
G01X5009973Y-12017164D01*
G01X5036418Y-12015273D01*
G01X5062323Y-12009638D01*
G01X5087163Y-12000373D01*
G01X5110432Y-11987667D01*
G01X5131656Y-11971779D01*
G01X5150402Y-11953033D01*
G01X5166290Y-11931809D01*
G01X5178996Y-11908541D01*
G01X5188260Y-11883701D01*
G01X5193896Y-11857795D01*
G01X5195787Y-11831351D01*
G01X5195787Y-11831351D01*
G01X5194879Y-11818651D01*
G01X7924179Y-11818651D01*
G01X7926070Y-11845095D01*
G01X7931706Y-11871001D01*
G01X7940971Y-11895841D01*
G01X7953676Y-11919109D01*
G01X7969564Y-11940333D01*
G01X7988311Y-11959079D01*
G01X8009534Y-11974967D01*
G01X8032803Y-11987673D01*
G01X8057643Y-11996938D01*
G01X8083549Y-12002573D01*
G01X8109993Y-12004464D01*
G01X8136437Y-12002573D01*
G01X8162342Y-11996938D01*
G01X8187182Y-11987673D01*
G01X8210451Y-11974967D01*
G01X8231675Y-11959079D01*
G01X8250421Y-11940333D01*
G01X8266309Y-11919109D01*
G01X8279015Y-11895841D01*
G01X8288280Y-11871001D01*
G01X8293915Y-11845095D01*
G01X8295806Y-11818651D01*
G01X8295806Y-11818651D01*
G01X8293915Y-11792207D01*
G01X8288280Y-11766301D01*
G01X8279015Y-11741461D01*
G01X8266309Y-11718192D01*
G01X8250421Y-11696969D01*
G01X8231675Y-11678222D01*
G01X8210451Y-11662334D01*
G01X8187182Y-11649629D01*
G01X8162342Y-11640364D01*
G01X8136437Y-11634728D01*
G01X8109993Y-11632837D01*
G01X8083549Y-11634728D01*
G01X8057643Y-11640364D01*
G01X8032803Y-11649629D01*
G01X8009534Y-11662334D01*
G01X7988311Y-11678222D01*
G01X7969564Y-11696969D01*
G01X7953676Y-11718192D01*
G01X7940971Y-11741461D01*
G01X7931706Y-11766301D01*
G01X7926070Y-11792207D01*
G01X7924179Y-11818651D01*
G01X5194879Y-11818651D01*
G01X5193896Y-11804907D01*
G01X5188260Y-11779001D01*
G01X5178996Y-11754161D01*
G01X5166290Y-11730892D01*
G01X5150402Y-11709669D01*
G01X5131656Y-11690922D01*
G01X5110432Y-11675034D01*
G01X5087163Y-11662329D01*
G01X5062323Y-11653064D01*
G01X5036418Y-11647428D01*
G01X5009973Y-11645537D01*
G01X4983529Y-11647428D01*
G01X4957624Y-11653064D01*
G01X4932784Y-11662329D01*
G01X4909515Y-11675034D01*
G01X4888291Y-11690922D01*
G01X4869545Y-11709669D01*
G01X4853657Y-11730892D01*
G01X4840951Y-11754161D01*
G01X4831687Y-11779001D01*
G01X4826051Y-11804907D01*
G01X4824160Y-11831351D01*
G01X4594898Y-11831351D01*
G01X4595806Y-11818651D01*
G01X4595806Y-11818651D01*
G01X4593915Y-11792207D01*
G01X4588280Y-11766301D01*
G01X4579015Y-11741461D01*
G01X4566309Y-11718192D01*
G01X4550421Y-11696969D01*
G01X4531675Y-11678222D01*
G01X4510451Y-11662334D01*
G01X4487183Y-11649629D01*
G01X4462342Y-11640364D01*
G01X4436437Y-11634728D01*
G01X4409993Y-11632837D01*
G01X4383549Y-11634728D01*
G01X4357643Y-11640364D01*
G01X4332803Y-11649629D01*
G01X4309534Y-11662334D01*
G01X4288311Y-11678222D01*
G01X4269564Y-11696969D01*
G01X4253676Y-11718192D01*
G01X4240971Y-11741461D01*
G01X4231706Y-11766301D01*
G01X4226070Y-11792207D01*
G01X4224179Y-11818651D01*
G01X1494879Y-11818651D01*
G01X1493896Y-11804907D01*
G01X1488260Y-11779001D01*
G01X1478996Y-11754161D01*
G01X1466290Y-11730892D01*
G01X1450402Y-11709669D01*
G01X1431656Y-11690922D01*
G01X1410432Y-11675034D01*
G01X1387163Y-11662329D01*
G01X1362323Y-11653064D01*
G01X1336418Y-11647428D01*
G01X1309974Y-11645537D01*
G01X1283529Y-11647428D01*
G01X1257624Y-11653064D01*
G01X1232784Y-11662329D01*
G01X1209515Y-11675034D01*
G01X1188291Y-11690922D01*
G01X1169545Y-11709669D01*
G01X1153657Y-11730892D01*
G01X1140951Y-11754161D01*
G01X1131687Y-11779001D01*
G01X1126051Y-11804907D01*
G01X1124160Y-11831351D01*
G01X1045815Y-11831351D01*
G01X1045815Y-7479999D01*
G01X1754188Y-7479999D01*
G01X1756099Y-7501846D01*
G01X1761776Y-7523030D01*
G01X1771044Y-7542906D01*
G01X1783623Y-7560871D01*
G01X1799130Y-7576378D01*
G01X1817095Y-7588957D01*
G01X1836971Y-7598225D01*
G01X1858154Y-7603901D01*
G01X1880002Y-7605813D01*
G01X1901849Y-7603901D01*
G01X1923033Y-7598225D01*
G01X1942909Y-7588957D01*
G01X1960873Y-7576378D01*
G01X1976381Y-7560871D01*
G01X1988960Y-7542906D01*
G01X1998228Y-7523030D01*
G01X2003904Y-7501846D01*
G01X2005816Y-7479999D01*
G01X2004921Y-7469774D01*
G01X3014658Y-7469774D01*
G01X3014658Y-7490224D01*
G01X3018416Y-7510325D01*
G01X3025803Y-7529393D01*
G01X3036568Y-7546779D01*
G01X3050345Y-7561891D01*
G01X3066663Y-7574215D01*
G01X3084969Y-7583330D01*
G01X3104637Y-7588926D01*
G01X3124999Y-7590813D01*
G01X3124999Y-7590813D01*
G01X3394999Y-7590813D01*
G01X3415361Y-7588926D01*
G01X3435029Y-7583330D01*
G01X3453335Y-7574215D01*
G01X3469654Y-7561891D01*
G01X3483430Y-7546779D01*
G01X3494195Y-7529393D01*
G01X3501582Y-7510325D01*
G01X3505340Y-7490224D01*
G01X3505340Y-7469774D01*
G01X3501582Y-7449673D01*
G01X3494195Y-7430605D01*
G01X3483430Y-7413219D01*
G01X3469654Y-7398107D01*
G01X3453335Y-7385783D01*
G01X3435029Y-7376668D01*
G01X3415361Y-7371072D01*
G01X3394999Y-7369185D01*
G01X3124999Y-7369185D01*
G01X3104637Y-7371072D01*
G01X3084969Y-7376668D01*
G01X3066663Y-7385783D01*
G01X3050345Y-7398107D01*
G01X3036568Y-7413219D01*
G01X3025803Y-7430605D01*
G01X3018416Y-7449673D01*
G01X3014658Y-7469774D01*
G01X2004921Y-7469774D01*
G01X2003904Y-7458152D01*
G01X1998228Y-7436968D01*
G01X1988960Y-7417092D01*
G01X1976381Y-7399127D01*
G01X1960873Y-7383620D01*
G01X1942909Y-7371041D01*
G01X1923033Y-7361773D01*
G01X1901849Y-7356097D01*
G01X1880002Y-7354185D01*
G01X1858154Y-7356097D01*
G01X1836971Y-7361773D01*
G01X1817095Y-7371041D01*
G01X1799130Y-7383620D01*
G01X1783623Y-7399127D01*
G01X1771044Y-7417092D01*
G01X1761776Y-7436968D01*
G01X1756099Y-7458152D01*
G01X1754188Y-7479999D01*
G01X1754188Y-7479999D01*
G01X1045815Y-7479999D01*
G01X1045815Y-6845000D01*
G01X1499189Y-6845000D01*
G01X1499189Y-6915000D01*
G01X1501168Y-6940157D01*
G01X1507059Y-6964694D01*
G01X1516716Y-6988008D01*
G01X1529901Y-7009524D01*
G01X1546290Y-7028713D01*
G01X1565478Y-7045101D01*
G01X1586994Y-7058286D01*
G01X1610308Y-7067943D01*
G01X1634845Y-7073834D01*
G01X1660002Y-7075814D01*
G01X1685159Y-7073834D01*
G01X1709696Y-7067943D01*
G01X1733010Y-7058286D01*
G01X1754526Y-7045101D01*
G01X1773715Y-7028713D01*
G01X1790103Y-7009524D01*
G01X1803288Y-6988008D01*
G01X1812945Y-6964694D01*
G01X1818836Y-6940157D01*
G01X1820816Y-6915000D01*
G01X1820816Y-6845000D01*
G01X1818836Y-6819843D01*
G01X1812945Y-6795306D01*
G01X1803288Y-6771992D01*
G01X1790103Y-6750476D01*
G01X1773715Y-6731288D01*
G01X1754526Y-6714899D01*
G01X1733010Y-6701714D01*
G01X1709696Y-6692057D01*
G01X1685159Y-6686166D01*
G01X1660002Y-6684187D01*
G01X1634845Y-6686166D01*
G01X1610308Y-6692057D01*
G01X1586994Y-6701714D01*
G01X1565478Y-6714899D01*
G01X1546290Y-6731288D01*
G01X1529901Y-6750476D01*
G01X1516716Y-6771992D01*
G01X1507059Y-6795306D01*
G01X1501168Y-6819843D01*
G01X1499189Y-6845000D01*
G01X1499189Y-6845000D01*
G01X1045815Y-6845000D01*
G01X1045815Y-6280006D01*
G01X1754188Y-6280006D01*
G01X1756123Y-6301981D01*
G01X1761866Y-6323280D01*
G01X1771241Y-6343249D01*
G01X1783960Y-6361273D01*
G01X1799632Y-6376799D01*
G01X1817774Y-6389349D01*
G01X1837830Y-6398537D01*
G01X1859182Y-6404081D01*
G01X1881174Y-6405810D01*
G01X1903130Y-6403671D01*
G01X1924375Y-6397730D01*
G01X1944256Y-6388170D01*
G01X1962161Y-6375285D01*
G01X1977541Y-6359470D01*
G01X1989922Y-6341212D01*
G01X2490808Y-6341212D01*
G01X2502751Y-6340035D01*
G01X2514234Y-6336552D01*
G01X2524817Y-6330895D01*
G01X2534093Y-6323282D01*
G01X3823208Y-5034168D01*
G01X3831479Y-5044216D01*
G01X3841554Y-5052455D01*
G01X3853044Y-5058568D01*
G01X4698609Y-5904133D01*
G01X4707885Y-5911746D01*
G01X4718468Y-5917403D01*
G01X4729951Y-5920886D01*
G01X4741894Y-5922063D01*
G01X5125364Y-5922063D01*
G01X4753135Y-6294292D01*
G01X4747972Y-6278981D01*
G01X4739260Y-6265373D01*
G01X4727515Y-6254277D01*
G01X4713436Y-6246350D01*
G01X4292199Y-5825113D01*
G01X4292199Y-5621972D01*
G01X4296564Y-5606317D01*
G01X4296989Y-5590071D01*
G01X4293451Y-5574209D01*
G01X4286161Y-5559684D01*
G01X4275556Y-5547368D01*
G01X4262275Y-5538001D01*
G01X4247114Y-5532147D01*
G01X4230985Y-5530155D01*
G01X4214855Y-5532147D01*
G01X4199695Y-5538001D01*
G01X4186413Y-5547368D01*
G01X4175809Y-5559684D01*
G01X4168519Y-5574209D01*
G01X4164980Y-5590071D01*
G01X4165406Y-5606317D01*
G01X4169771Y-5621972D01*
G01X4169771Y-5850469D01*
G01X4170947Y-5862411D01*
G01X4174431Y-5873894D01*
G01X4180087Y-5884477D01*
G01X4187700Y-5893753D01*
G01X4626866Y-6332919D01*
G01X4634793Y-6346999D01*
G01X4645890Y-6358743D01*
G01X4659497Y-6367456D01*
G01X4674808Y-6372619D01*
G01X2510367Y-8537060D01*
G01X2510367Y-8537060D01*
G01X2482058Y-8567953D01*
G01X2456550Y-8601196D01*
G01X2434036Y-8636536D01*
G01X2414688Y-8673704D01*
G01X2398653Y-8712416D01*
G01X2386052Y-8752379D01*
G01X2376983Y-8793288D01*
G01X2371514Y-8834831D01*
G01X2369686Y-8876693D01*
G01X2369686Y-11082251D01*
G01X2371114Y-11119259D01*
G01X2375389Y-11156047D01*
G01X2382486Y-11192397D01*
G01X2392362Y-11228091D01*
G01X2376641Y-11223168D01*
G01X2360439Y-11220186D01*
G01X2343995Y-11219186D01*
G01X2263995Y-11219186D01*
G01X2241641Y-11221039D01*
G01X2219896Y-11226545D01*
G01X2199355Y-11235555D01*
G01X2180576Y-11247824D01*
G01X2164074Y-11263016D01*
G01X2150296Y-11280717D01*
G01X2139620Y-11300444D01*
G01X2132337Y-11321660D01*
G01X2128645Y-11343785D01*
G01X2128645Y-11366216D01*
G01X2132337Y-11388340D01*
G01X2139620Y-11409556D01*
G01X2150296Y-11429283D01*
G01X2164074Y-11446984D01*
G01X2180576Y-11462176D01*
G01X2199355Y-11474445D01*
G01X2219896Y-11483455D01*
G01X2241641Y-11488962D01*
G01X2263995Y-11490814D01*
G01X2343995Y-11490814D01*
G01X2366853Y-11488877D01*
G01X2389059Y-11483120D01*
G01X2409979Y-11473708D01*
G01X2429017Y-11460909D01*
G01X2445629Y-11445088D01*
G01X2459342Y-11426698D01*
G01X2469763Y-11406261D01*
G01X2476597Y-11384363D01*
G01X2505910Y-11417368D01*
G01X2538130Y-11447543D01*
G01X2572983Y-11474633D01*
G01X2610177Y-11498408D01*
G01X2649397Y-11518668D01*
G01X2690310Y-11535242D01*
G01X2732573Y-11547990D01*
G01X2775828Y-11556804D01*
G01X2819709Y-11561609D01*
G01X2863846Y-11562366D01*
G01X2907866Y-11559067D01*
G01X2951397Y-11551741D01*
G01X2994071Y-11540449D01*
G01X3035529Y-11525287D01*
G01X3075420Y-11506383D01*
G01X3113407Y-11483896D01*
G01X3149169Y-11458017D01*
G01X3182403Y-11428964D01*
G01X3212831Y-11396982D01*
G01X3240193Y-11362342D01*
G01X3240193Y-11455000D01*
G01X3241946Y-11466067D01*
G01X3247033Y-11476051D01*
G01X3254956Y-11483974D01*
G01X3264940Y-11489061D01*
G01X3276007Y-11490814D01*
G01X3377436Y-11490814D01*
G01X3381785Y-11504941D01*
G01X3389394Y-11517614D01*
G01X3399819Y-11528093D01*
G01X3412452Y-11535768D01*
G01X3426556Y-11540191D01*
G01X3441309Y-11541104D01*
G01X3455851Y-11538454D01*
G01X3469334Y-11532396D01*
G01X3480971Y-11523282D01*
G01X3513440Y-11490814D01*
G01X3556007Y-11490814D01*
G01X3567074Y-11489061D01*
G01X3577058Y-11483974D01*
G01X3584981Y-11476051D01*
G01X3590068Y-11466067D01*
G01X3591821Y-11455000D01*
G01X3591821Y-11412433D01*
G01X3660469Y-11343785D01*
G01X5828645Y-11343785D01*
G01X5828645Y-11366216D01*
G01X5832337Y-11388340D01*
G01X5839620Y-11409556D01*
G01X5850296Y-11429283D01*
G01X5864073Y-11446984D01*
G01X5880576Y-11462176D01*
G01X5899355Y-11474445D01*
G01X5919896Y-11483455D01*
G01X5941641Y-11488962D01*
G01X5963995Y-11490814D01*
G01X6043995Y-11490814D01*
G01X6066349Y-11488962D01*
G01X6088093Y-11483455D01*
G01X6108635Y-11474445D01*
G01X6127413Y-11462176D01*
G01X6143916Y-11446984D01*
G01X6157694Y-11429283D01*
G01X6168369Y-11409556D01*
G01X6175653Y-11388340D01*
G01X6179345Y-11366216D01*
G01X6179345Y-11343785D01*
G01X6384651Y-11343785D01*
G01X6384651Y-11366216D01*
G01X6388343Y-11388340D01*
G01X6395626Y-11409556D01*
G01X6406302Y-11429283D01*
G01X6420079Y-11446984D01*
G01X6436582Y-11462176D01*
G01X6455361Y-11474445D01*
G01X6475902Y-11483455D01*
G01X6497647Y-11488962D01*
G01X6520001Y-11490814D01*
G01X6600001Y-11490814D01*
G01X6622558Y-11488928D01*
G01X6644489Y-11483321D01*
G01X6665183Y-11474150D01*
G01X6684068Y-11461669D01*
G01X6700616Y-11446225D01*
G01X6714370Y-11428246D01*
G01X6724947Y-11408233D01*
G01X6732053Y-11386742D01*
G01X6735491Y-11364368D01*
G01X6894406Y-11523283D01*
G01X6903682Y-11530897D01*
G01X6914266Y-11536554D01*
G01X6925749Y-11540038D01*
G01X6937692Y-11541214D01*
G01X7116007Y-11541214D01*
G01X7130093Y-11539571D01*
G01X7143424Y-11534731D01*
G01X7155283Y-11526953D01*
G01X7165033Y-11516654D01*
G01X7172153Y-11504389D01*
G01X7176258Y-11490814D01*
G01X7256007Y-11490814D01*
G01X7267074Y-11489061D01*
G01X7277058Y-11483974D01*
G01X7284981Y-11476051D01*
G01X7290068Y-11466067D01*
G01X7291821Y-11455000D01*
G01X7291821Y-11255000D01*
G01X7290068Y-11243933D01*
G01X7284981Y-11233949D01*
G01X7277058Y-11226026D01*
G01X7267074Y-11220939D01*
G01X7256007Y-11219186D01*
G01X6976007Y-11219186D01*
G01X6964940Y-11220939D01*
G01X6954956Y-11226026D01*
G01X6947033Y-11233949D01*
G01X6941946Y-11243933D01*
G01X6940193Y-11255000D01*
G01X6940193Y-11395931D01*
G01X6832194Y-11287932D01*
G01X6832194Y-9939963D01*
G01X6836559Y-9924308D01*
G01X6836984Y-9908062D01*
G01X6833446Y-9892200D01*
G01X6826156Y-9877675D01*
G01X6815551Y-9865359D01*
G01X6802270Y-9855993D01*
G01X6787109Y-9850138D01*
G01X6770980Y-9848147D01*
G01X6754850Y-9850138D01*
G01X6739690Y-9855993D01*
G01X6726408Y-9865359D01*
G01X6715804Y-9877675D01*
G01X6708514Y-9892200D01*
G01X6704975Y-9908062D01*
G01X6705401Y-9924308D01*
G01X6709766Y-9939963D01*
G01X6709766Y-11275019D01*
G01X6695925Y-11258855D01*
G01X6679729Y-11245051D01*
G01X6661575Y-11233947D01*
G01X6641910Y-11225814D01*
G01X6621216Y-11220854D01*
G01X6600001Y-11219186D01*
G01X6600001Y-11219186D01*
G01X6520001Y-11219186D01*
G01X6497647Y-11221039D01*
G01X6475902Y-11226545D01*
G01X6455361Y-11235555D01*
G01X6436582Y-11247824D01*
G01X6420079Y-11263016D01*
G01X6406302Y-11280717D01*
G01X6395626Y-11300444D01*
G01X6388343Y-11321660D01*
G01X6384651Y-11343785D01*
G01X6179345Y-11343785D01*
G01X6175653Y-11321660D01*
G01X6168369Y-11300444D01*
G01X6157694Y-11280717D01*
G01X6143916Y-11263016D01*
G01X6127413Y-11247824D01*
G01X6108635Y-11235555D01*
G01X6088093Y-11226545D01*
G01X6066349Y-11221039D01*
G01X6043995Y-11219186D01*
G01X6043995Y-11219186D01*
G01X5963995Y-11219186D01*
G01X5941641Y-11221039D01*
G01X5919896Y-11226545D01*
G01X5899355Y-11235555D01*
G01X5880576Y-11247824D01*
G01X5864073Y-11263016D01*
G01X5850296Y-11280717D01*
G01X5839620Y-11300444D01*
G01X5832337Y-11321660D01*
G01X5828645Y-11343785D01*
G01X3660469Y-11343785D01*
G01X4728789Y-10275465D01*
G01X4736402Y-10266188D01*
G01X4742058Y-10255605D01*
G01X4745542Y-10244122D01*
G01X4746718Y-10232180D01*
G01X4746718Y-7960087D01*
G01X4751083Y-7944432D01*
G01X4751508Y-7928186D01*
G01X4747970Y-7912324D01*
G01X4740680Y-7897799D01*
G01X4730075Y-7885483D01*
G01X4716794Y-7876117D01*
G01X4701633Y-7870262D01*
G01X4685504Y-7868270D01*
G01X4669375Y-7870262D01*
G01X4654214Y-7876117D01*
G01X4640933Y-7885483D01*
G01X4630328Y-7897799D01*
G01X4623038Y-7912324D01*
G01X4619499Y-7928186D01*
G01X4619925Y-7944432D01*
G01X4624290Y-7960087D01*
G01X4624290Y-10206824D01*
G01X3589303Y-11241811D01*
G01X3583954Y-11232604D01*
G01X3576135Y-11225378D01*
G01X3566536Y-11220769D01*
G01X3556007Y-11219186D01*
G01X3310381Y-11219186D01*
G01X3319067Y-11185583D01*
G01X3325305Y-11151440D01*
G01X3329060Y-11116936D01*
G01X3330314Y-11082251D01*
G01X3330314Y-9075646D01*
G01X5021112Y-7384848D01*
G01X5428879Y-7384848D01*
G01X5430791Y-7406696D01*
G01X5436467Y-7427879D01*
G01X5445735Y-7447755D01*
G01X5458314Y-7465720D01*
G01X5473821Y-7481227D01*
G01X5491786Y-7493806D01*
G01X5511662Y-7503075D01*
G01X5532846Y-7508751D01*
G01X5554693Y-7510662D01*
G01X5554693Y-7510662D01*
G01X5576540Y-7508751D01*
G01X5597724Y-7503075D01*
G01X5617600Y-7493806D01*
G01X5635565Y-7481227D01*
G01X5651072Y-7465720D01*
G01X5663651Y-7447755D01*
G01X5672919Y-7427879D01*
G01X5678595Y-7406696D01*
G01X5680507Y-7384848D01*
G01X5678595Y-7363001D01*
G01X5672919Y-7341817D01*
G01X5663651Y-7321941D01*
G01X5651072Y-7303977D01*
G01X5635565Y-7288469D01*
G01X5617600Y-7275890D01*
G01X5597724Y-7266622D01*
G01X5576540Y-7260946D01*
G01X5554693Y-7259035D01*
G01X5532846Y-7260946D01*
G01X5511662Y-7266622D01*
G01X5491786Y-7275890D01*
G01X5473821Y-7288469D01*
G01X5458314Y-7303977D01*
G01X5445735Y-7321941D01*
G01X5436467Y-7341817D01*
G01X5430791Y-7363001D01*
G01X5428879Y-7384848D01*
G01X5021112Y-7384848D01*
G01X5286972Y-7118988D01*
G01X6246347Y-7118988D01*
G01X6246347Y-7146396D01*
G01X6250080Y-7173549D01*
G01X6257474Y-7199941D01*
G01X6268393Y-7225080D01*
G01X6282634Y-7248498D01*
G01X6299931Y-7269758D01*
G01X6319962Y-7288466D01*
G01X6342353Y-7304271D01*
G01X6366689Y-7316881D01*
G01X6392514Y-7326059D01*
G01X6419349Y-7331636D01*
G01X6446693Y-7333506D01*
G01X6446693Y-7333506D01*
G01X6474037Y-7331636D01*
G01X6500872Y-7326059D01*
G01X6526697Y-7316881D01*
G01X6551033Y-7304271D01*
G01X6573424Y-7288466D01*
G01X6593455Y-7269758D01*
G01X6610752Y-7248498D01*
G01X6624992Y-7225080D01*
G01X6635912Y-7199941D01*
G01X6643306Y-7173549D01*
G01X6647039Y-7146396D01*
G01X6647039Y-7118988D01*
G01X7262347Y-7118988D01*
G01X7262347Y-7146396D01*
G01X7266080Y-7173549D01*
G01X7273474Y-7199941D01*
G01X7284393Y-7225080D01*
G01X7298634Y-7248498D01*
G01X7315931Y-7269758D01*
G01X7335962Y-7288466D01*
G01X7358353Y-7304271D01*
G01X7382689Y-7316881D01*
G01X7408514Y-7326059D01*
G01X7435349Y-7331636D01*
G01X7462693Y-7333506D01*
G01X7462693Y-7333506D01*
G01X7490037Y-7331636D01*
G01X7516872Y-7326059D01*
G01X7542697Y-7316881D01*
G01X7567033Y-7304271D01*
G01X7589424Y-7288466D01*
G01X7609455Y-7269758D01*
G01X7626752Y-7248498D01*
G01X7640992Y-7225080D01*
G01X7651912Y-7199941D01*
G01X7659306Y-7173549D01*
G01X7663039Y-7146396D01*
G01X7663039Y-7118988D01*
G01X7659306Y-7091836D01*
G01X7651912Y-7065444D01*
G01X7640992Y-7040305D01*
G01X7626752Y-7016887D01*
G01X7609455Y-6995626D01*
G01X7589424Y-6976919D01*
G01X7567033Y-6961113D01*
G01X7542697Y-6948504D01*
G01X7516872Y-6939325D01*
G01X7490037Y-6933749D01*
G01X7462693Y-6931879D01*
G01X7435349Y-6933749D01*
G01X7408514Y-6939325D01*
G01X7382689Y-6948504D01*
G01X7358353Y-6961113D01*
G01X7335962Y-6976919D01*
G01X7315931Y-6995626D01*
G01X7298634Y-7016887D01*
G01X7284393Y-7040305D01*
G01X7273474Y-7065444D01*
G01X7266080Y-7091836D01*
G01X7262347Y-7118988D01*
G01X6647039Y-7118988D01*
G01X6647039Y-7118988D01*
G01X6643306Y-7091836D01*
G01X6635912Y-7065444D01*
G01X6624992Y-7040305D01*
G01X6610752Y-7016887D01*
G01X6593455Y-6995626D01*
G01X6573424Y-6976919D01*
G01X6551033Y-6961113D01*
G01X6526697Y-6948504D01*
G01X6500872Y-6939325D01*
G01X6474037Y-6933749D01*
G01X6446693Y-6931879D01*
G01X6419349Y-6933749D01*
G01X6392514Y-6939325D01*
G01X6366689Y-6948504D01*
G01X6342353Y-6961113D01*
G01X6319962Y-6976919D01*
G01X6299931Y-6995626D01*
G01X6282634Y-7016887D01*
G01X6268393Y-7040305D01*
G01X6257474Y-7065444D01*
G01X6250080Y-7091836D01*
G01X6246347Y-7118988D01*
G01X5286972Y-7118988D01*
G01X5808954Y-6597006D01*
G01X7462693Y-6597006D01*
G01X7505748Y-6595073D01*
G01X7548456Y-6589288D01*
G01X7590474Y-6579697D01*
G01X7631463Y-6566379D01*
G01X7671093Y-6549440D01*
G01X7709046Y-6529017D01*
G01X7745014Y-6505275D01*
G01X7778710Y-6478403D01*
G01X7809861Y-6448619D01*
G01X7838218Y-6416163D01*
G01X7863550Y-6381296D01*
G01X7885655Y-6344298D01*
G01X7904355Y-6305468D01*
G01X7919499Y-6265118D01*
G01X7930964Y-6223572D01*
G01X7938660Y-6181166D01*
G01X7942523Y-6138242D01*
G01X7942523Y-6095143D01*
G01X7938660Y-6052218D01*
G01X7930964Y-6009812D01*
G01X7919499Y-5968267D01*
G01X7904355Y-5927917D01*
G01X7885655Y-5889087D01*
G01X7863550Y-5852089D01*
G01X7838218Y-5817221D01*
G01X7809861Y-5784765D01*
G01X7778710Y-5754982D01*
G01X7745014Y-5728110D01*
G01X7709046Y-5704367D01*
G01X7671093Y-5683944D01*
G01X7631463Y-5667006D01*
G01X7590474Y-5653688D01*
G01X7548456Y-5644097D01*
G01X7505748Y-5638312D01*
G01X7462693Y-5636378D01*
G01X7462693Y-5636378D01*
G01X5610001Y-5636378D01*
G01X5568139Y-5638206D01*
G01X5526595Y-5643675D01*
G01X5485687Y-5652745D01*
G01X5445724Y-5665345D01*
G01X5407012Y-5681380D01*
G01X5369844Y-5700728D01*
G01X5334504Y-5723242D01*
G01X5301261Y-5748750D01*
G01X5270368Y-5777059D01*
G01X5247792Y-5799635D01*
G01X4767249Y-5799635D01*
G01X3953187Y-4985572D01*
G01X5065645Y-4985572D01*
G01X5077587Y-4984396D01*
G01X5089071Y-4980913D01*
G01X5099654Y-4975256D01*
G01X5108930Y-4967643D01*
G01X7294187Y-2782386D01*
G01X7294187Y-2800000D01*
G01X7296159Y-2821280D01*
G01X7302007Y-2841837D01*
G01X7311534Y-2860968D01*
G01X7324413Y-2878023D01*
G01X7340207Y-2892421D01*
G01X7358378Y-2903672D01*
G01X7378306Y-2911392D01*
G01X7399314Y-2915320D01*
G01X7420686Y-2915320D01*
G01X7441694Y-2911392D01*
G01X7461623Y-2903672D01*
G01X7479794Y-2892421D01*
G01X7495588Y-2878023D01*
G01X7508467Y-2860968D01*
G01X7517994Y-2841837D01*
G01X7523842Y-2821280D01*
G01X7525814Y-2800000D01*
G01X7525814Y-2460000D01*
G01X7523842Y-2438720D01*
G01X7517994Y-2418164D01*
G01X7508467Y-2399032D01*
G01X7495588Y-2381977D01*
G01X7479794Y-2367579D01*
G01X7461623Y-2356328D01*
G01X7441694Y-2348608D01*
G01X7420686Y-2344681D01*
G01X7399314Y-2344681D01*
G01X7378306Y-2348608D01*
G01X7358378Y-2356328D01*
G01X7340207Y-2367579D01*
G01X7324413Y-2381977D01*
G01X7311534Y-2399032D01*
G01X7302007Y-2418164D01*
G01X7296159Y-2438720D01*
G01X7294187Y-2460000D01*
G01X7294187Y-2609247D01*
G01X5040290Y-4863144D01*
G01X3846448Y-4863144D01*
G01X3834505Y-4864320D01*
G01X3823022Y-4867804D01*
G01X3812439Y-4873461D01*
G01X3803163Y-4881073D01*
G01X3235567Y-5448669D01*
G01X3249370Y-5424205D01*
G01X3259625Y-5398054D01*
G01X3266130Y-5370727D01*
G01X3268758Y-5342761D01*
G01X3267458Y-5314701D01*
G01X3262256Y-5287097D01*
G01X3253253Y-5260489D01*
G01X3240625Y-5235398D01*
G01X3224619Y-5212314D01*
G01X3205549Y-5191690D01*
G01X3183787Y-5173928D01*
G01X3159760Y-5159377D01*
G01X3133938Y-5148320D01*
G01X3106826Y-5140975D01*
G01X3078953Y-5137485D01*
G01X3050867Y-5137919D01*
G01X3023116Y-5142267D01*
G01X2996243Y-5150445D01*
G01X2970774Y-5162293D01*
G01X2947207Y-5177579D01*
G01X2926004Y-5196003D01*
G01X2907579Y-5217206D01*
G01X2892294Y-5240773D01*
G01X2880446Y-5266242D01*
G01X2872268Y-5293115D01*
G01X2867919Y-5320866D01*
G01X2867486Y-5348953D01*
G01X2870976Y-5376825D01*
G01X2878321Y-5403937D01*
G01X2889377Y-5429760D01*
G01X2903929Y-5453787D01*
G01X2921691Y-5475548D01*
G01X2942315Y-5494618D01*
G01X2965399Y-5510624D01*
G01X2990490Y-5523252D01*
G01X3017098Y-5532255D01*
G01X3044702Y-5537457D01*
G01X3072762Y-5538757D01*
G01X3100728Y-5536129D01*
G01X3128054Y-5529624D01*
G01X3154206Y-5519369D01*
G01X3178670Y-5505566D01*
G01X2465453Y-6218784D01*
G01X1989918Y-6218784D01*
G01X1977536Y-6200526D01*
G01X1962155Y-6184712D01*
G01X1944248Y-6171828D01*
G01X1924367Y-6162269D01*
G01X1903121Y-6156330D01*
G01X1881165Y-6154193D01*
G01X1859173Y-6155924D01*
G01X1837821Y-6161469D01*
G01X1817767Y-6170658D01*
G01X1799625Y-6183210D01*
G01X1783954Y-6198736D01*
G01X1771237Y-6216761D01*
G01X1761863Y-6236731D01*
G01X1756121Y-6258031D01*
G01X1754188Y-6280006D01*
G01X1045815Y-6280006D01*
G01X1045815Y-5324296D01*
G01X1851655Y-5324296D01*
G01X1851655Y-5351704D01*
G01X1855387Y-5378857D01*
G01X1862782Y-5405248D01*
G01X1873701Y-5430387D01*
G01X1887942Y-5453805D01*
G01X1905239Y-5475066D01*
G01X1925270Y-5493773D01*
G01X1947661Y-5509579D01*
G01X1971996Y-5522189D01*
G01X1997822Y-5531367D01*
G01X2024657Y-5536943D01*
G01X2052001Y-5538814D01*
G01X2079345Y-5536943D01*
G01X2106180Y-5531367D01*
G01X2132005Y-5522189D01*
G01X2156340Y-5509579D01*
G01X2178732Y-5493773D01*
G01X2198763Y-5475066D01*
G01X2216059Y-5453805D01*
G01X2230300Y-5430387D01*
G01X2241220Y-5405248D01*
G01X2248614Y-5378857D01*
G01X2252346Y-5351704D01*
G01X2252346Y-5324296D01*
G01X2248614Y-5297143D01*
G01X2241220Y-5270752D01*
G01X2230300Y-5245613D01*
G01X2216059Y-5222195D01*
G01X2198763Y-5200934D01*
G01X2178732Y-5182227D01*
G01X2156340Y-5166421D01*
G01X2132005Y-5153811D01*
G01X2106180Y-5144633D01*
G01X2079345Y-5139057D01*
G01X2052001Y-5137186D01*
G01X2052001Y-5137186D01*
G01X2024657Y-5139057D01*
G01X1997822Y-5144633D01*
G01X1971996Y-5153811D01*
G01X1947661Y-5166421D01*
G01X1925270Y-5182227D01*
G01X1905239Y-5200934D01*
G01X1887942Y-5222195D01*
G01X1873701Y-5245613D01*
G01X1862782Y-5270752D01*
G01X1855387Y-5297143D01*
G01X1851655Y-5324296D01*
G01X1045815Y-5324296D01*
G01X1045815Y-4308296D01*
G01X1851655Y-4308296D01*
G01X1851655Y-4335704D01*
G01X1855387Y-4362857D01*
G01X1862782Y-4389248D01*
G01X1873701Y-4414387D01*
G01X1887942Y-4437805D01*
G01X1905239Y-4459066D01*
G01X1925270Y-4477773D01*
G01X1947661Y-4493579D01*
G01X1971996Y-4506189D01*
G01X1997822Y-4515367D01*
G01X2024657Y-4520943D01*
G01X2052001Y-4522814D01*
G01X2079345Y-4520943D01*
G01X2106180Y-4515367D01*
G01X2132005Y-4506189D01*
G01X2156340Y-4493579D01*
G01X2178732Y-4477773D01*
G01X2198763Y-4459066D01*
G01X2216059Y-4437805D01*
G01X2230300Y-4414387D01*
G01X2241220Y-4389248D01*
G01X2248614Y-4362857D01*
G01X2252346Y-4335704D01*
G01X2252346Y-4308296D01*
G01X2867655Y-4308296D01*
G01X2867655Y-4335704D01*
G01X2871387Y-4362857D01*
G01X2878782Y-4389248D01*
G01X2889701Y-4414387D01*
G01X2903942Y-4437805D01*
G01X2921239Y-4459066D01*
G01X2941270Y-4477773D01*
G01X2963661Y-4493579D01*
G01X2987996Y-4506189D01*
G01X3013822Y-4515367D01*
G01X3040657Y-4520943D01*
G01X3068001Y-4522814D01*
G01X3095345Y-4520943D01*
G01X3122180Y-4515367D01*
G01X3148005Y-4506189D01*
G01X3172340Y-4493579D01*
G01X3194732Y-4477773D01*
G01X3214763Y-4459066D01*
G01X3232059Y-4437805D01*
G01X3246300Y-4414387D01*
G01X3257220Y-4389248D01*
G01X3264614Y-4362857D01*
G01X3268346Y-4335704D01*
G01X3268346Y-4308296D01*
G01X3264614Y-4281143D01*
G01X3257220Y-4254752D01*
G01X3246300Y-4229613D01*
G01X3232059Y-4206195D01*
G01X3214763Y-4184934D01*
G01X3194732Y-4166227D01*
G01X3172340Y-4150421D01*
G01X3148005Y-4137811D01*
G01X3122180Y-4128633D01*
G01X3095345Y-4123057D01*
G01X3068001Y-4121186D01*
G01X3068001Y-4121186D01*
G01X3040657Y-4123057D01*
G01X3013822Y-4128633D01*
G01X2987996Y-4137811D01*
G01X2963661Y-4150421D01*
G01X2941270Y-4166227D01*
G01X2921239Y-4184934D01*
G01X2903942Y-4206195D01*
G01X2889701Y-4229613D01*
G01X2878782Y-4254752D01*
G01X2871387Y-4281143D01*
G01X2867655Y-4308296D01*
G01X2252346Y-4308296D01*
G01X2252346Y-4308296D01*
G01X2248614Y-4281143D01*
G01X2241220Y-4254752D01*
G01X2230300Y-4229613D01*
G01X2216059Y-4206195D01*
G01X2198763Y-4184934D01*
G01X2178732Y-4166227D01*
G01X2156340Y-4150421D01*
G01X2132005Y-4137811D01*
G01X2106180Y-4128633D01*
G01X2079345Y-4123057D01*
G01X2052001Y-4121186D01*
G01X2052001Y-4121186D01*
G01X2024657Y-4123057D01*
G01X1997822Y-4128633D01*
G01X1971996Y-4137811D01*
G01X1947661Y-4150421D01*
G01X1925270Y-4166227D01*
G01X1905239Y-4184934D01*
G01X1887942Y-4206195D01*
G01X1873701Y-4229613D01*
G01X1862782Y-4254752D01*
G01X1855387Y-4281143D01*
G01X1851655Y-4308296D01*
G01X1045815Y-4308296D01*
G01X1045815Y-2768983D01*
G01X1669675Y-2768983D01*
G01X1669675Y-2790355D01*
G01X1673602Y-2811363D01*
G01X1681322Y-2831291D01*
G01X1692573Y-2849462D01*
G01X1706971Y-2865256D01*
G01X1724027Y-2878135D01*
G01X1743158Y-2887662D01*
G01X1763714Y-2893510D01*
G01X1784995Y-2895482D01*
G01X1784995Y-2895482D01*
G01X1806275Y-2893510D01*
G01X1826831Y-2887662D01*
G01X1845963Y-2878135D01*
G01X1863018Y-2865256D01*
G01X1877416Y-2849462D01*
G01X1888667Y-2831291D01*
G01X1896387Y-2811363D01*
G01X1900314Y-2790355D01*
G01X1900314Y-2768983D01*
G01X1900314Y-2768983D01*
G01X2019687Y-2768983D01*
G01X2019687Y-2790355D01*
G01X2023614Y-2811363D01*
G01X2031334Y-2831291D01*
G01X2042585Y-2849462D01*
G01X2056983Y-2865256D01*
G01X2074039Y-2878135D01*
G01X2093170Y-2887662D01*
G01X2113726Y-2893510D01*
G01X2135007Y-2895482D01*
G01X2135007Y-2895482D01*
G01X2156287Y-2893510D01*
G01X2176843Y-2887662D01*
G01X2195975Y-2878135D01*
G01X2213030Y-2865256D01*
G01X2227428Y-2849462D01*
G01X2238679Y-2831291D01*
G01X2246399Y-2811363D01*
G01X2250326Y-2790355D01*
G01X2250326Y-2780000D01*
G01X5094187Y-2780000D01*
G01X5096159Y-2801281D01*
G01X5102008Y-2821837D01*
G01X5111534Y-2840968D01*
G01X5124414Y-2858023D01*
G01X5140208Y-2872421D01*
G01X5158379Y-2883672D01*
G01X5178307Y-2891393D01*
G01X5199315Y-2895320D01*
G01X5220687Y-2895320D01*
G01X5241695Y-2891393D01*
G01X5261624Y-2883672D01*
G01X5279795Y-2872421D01*
G01X5295589Y-2858023D01*
G01X5308468Y-2840968D01*
G01X5317994Y-2821837D01*
G01X5323843Y-2801281D01*
G01X5325815Y-2780000D01*
G01X5325815Y-2780000D01*
G01X5594186Y-2780000D01*
G01X5596158Y-2801281D01*
G01X5602007Y-2821837D01*
G01X5611533Y-2840968D01*
G01X5624413Y-2858023D01*
G01X5640207Y-2872421D01*
G01X5658378Y-2883672D01*
G01X5678306Y-2891393D01*
G01X5699314Y-2895320D01*
G01X5720686Y-2895320D01*
G01X5741694Y-2891393D01*
G01X5761623Y-2883672D01*
G01X5779794Y-2872421D01*
G01X5795588Y-2858023D01*
G01X5808467Y-2840968D01*
G01X5817993Y-2821837D01*
G01X5823842Y-2801281D01*
G01X5825814Y-2780000D01*
G01X5823842Y-2758719D01*
G01X5817993Y-2738163D01*
G01X5808467Y-2719032D01*
G01X5795588Y-2701977D01*
G01X5779794Y-2687579D01*
G01X5761623Y-2676328D01*
G01X5741694Y-2668607D01*
G01X5720686Y-2664680D01*
G01X5699314Y-2664680D01*
G01X5678306Y-2668607D01*
G01X5658378Y-2676328D01*
G01X5640207Y-2687579D01*
G01X5624413Y-2701977D01*
G01X5611533Y-2719032D01*
G01X5602007Y-2738163D01*
G01X5596158Y-2758719D01*
G01X5594186Y-2780000D01*
G01X5594186Y-2780000D01*
G01X5325815Y-2780000D01*
G01X5323843Y-2758719D01*
G01X5317994Y-2738163D01*
G01X5308468Y-2719032D01*
G01X5295589Y-2701977D01*
G01X5279795Y-2687579D01*
G01X5261624Y-2676328D01*
G01X5241695Y-2668607D01*
G01X5220687Y-2664680D01*
G01X5199315Y-2664680D01*
G01X5178307Y-2668607D01*
G01X5158379Y-2676328D01*
G01X5140208Y-2687579D01*
G01X5124414Y-2701977D01*
G01X5111534Y-2719032D01*
G01X5102008Y-2738163D01*
G01X5096159Y-2758719D01*
G01X5094187Y-2780000D01*
G01X5094187Y-2780000D01*
G01X2250326Y-2780000D01*
G01X2250326Y-2768983D01*
G01X2246399Y-2747975D01*
G01X2238679Y-2728046D01*
G01X2227428Y-2709875D01*
G01X2213030Y-2694081D01*
G01X2195975Y-2681202D01*
G01X2176843Y-2671675D01*
G01X2156287Y-2665827D01*
G01X2135007Y-2663855D01*
G01X2113726Y-2665827D01*
G01X2093170Y-2671675D01*
G01X2074039Y-2681202D01*
G01X2056983Y-2694081D01*
G01X2042585Y-2709875D01*
G01X2031334Y-2728046D01*
G01X2023614Y-2747975D01*
G01X2019687Y-2768983D01*
G01X1900314Y-2768983D01*
G01X1896387Y-2747975D01*
G01X1888667Y-2728046D01*
G01X1877416Y-2709875D01*
G01X1863018Y-2694081D01*
G01X1845963Y-2681202D01*
G01X1826831Y-2671675D01*
G01X1806275Y-2665827D01*
G01X1784995Y-2663855D01*
G01X1763714Y-2665827D01*
G01X1743158Y-2671675D01*
G01X1724027Y-2681202D01*
G01X1706971Y-2694081D01*
G01X1692573Y-2709875D01*
G01X1681322Y-2728046D01*
G01X1673602Y-2747975D01*
G01X1669675Y-2768983D01*
G01X1045815Y-2768983D01*
G01X1045815Y-2460000D01*
G01X6794188Y-2460000D01*
G01X6794188Y-2800000D01*
G01X6796160Y-2821280D01*
G01X6802008Y-2841837D01*
G01X6811535Y-2860968D01*
G01X6824414Y-2878023D01*
G01X6840208Y-2892421D01*
G01X6858379Y-2903672D01*
G01X6878307Y-2911392D01*
G01X6899315Y-2915320D01*
G01X6920687Y-2915320D01*
G01X6941695Y-2911392D01*
G01X6961624Y-2903672D01*
G01X6979795Y-2892421D01*
G01X6995589Y-2878023D01*
G01X7008468Y-2860968D01*
G01X7017995Y-2841837D01*
G01X7023843Y-2821280D01*
G01X7025815Y-2800000D01*
G01X7025815Y-2460000D01*
G01X7023843Y-2438720D01*
G01X7017995Y-2418164D01*
G01X7008468Y-2399032D01*
G01X6995589Y-2381977D01*
G01X6979795Y-2367579D01*
G01X6961624Y-2356328D01*
G01X6941695Y-2348608D01*
G01X6920687Y-2344681D01*
G01X6899315Y-2344681D01*
G01X6878307Y-2348608D01*
G01X6858379Y-2356328D01*
G01X6840208Y-2367579D01*
G01X6824414Y-2381977D01*
G01X6811535Y-2399032D01*
G01X6802008Y-2418164D01*
G01X6796160Y-2438720D01*
G01X6794188Y-2460000D01*
G01X6794188Y-2460000D01*
G01X1045815Y-2460000D01*
G01X1045815Y-2083200D01*
G37*
G54D10*
G01X1045815Y-2083200D02*
G02X1213201Y-1915814I167386J0D01*
G01X8206801Y-1915814D01*
G02X8374187Y-2083200I0J-167386D01*
G01X8374187Y-11876800D01*
G02X8206801Y-12044186I-167386J0D01*
G01X1213201Y-12044186D01*
G02X1045815Y-11876800I0J167386D01*
G01X1045815Y-2083200D01*
G01X1495787Y-11831351D02*
G03X1124160Y-11831351I-185814J0D01*
G03X1495787Y-11831351I185814J0D01*
G01X1499189Y-6845000D02*
G01X1499189Y-6915000D01*
G03X1820816Y-6915000I160814J0D01*
G01X1820816Y-6845000D01*
G03X1499189Y-6845000I-160814J0D01*
G01X1784995Y-2895482D02*
G03X1784995Y-2663855I0J115814D01*
G03X1784995Y-2895482I0J-115814D01*
G01X1754188Y-7479999D02*
G03X2005816Y-7479999I125814J0D01*
G03X1754188Y-7479999I-125814J0D01*
G01X2510367Y-8537060D02*
G03X2369686Y-8876693I339633J-339633D01*
G01X2369686Y-11082251D01*
G03X2392362Y-11228091I480314J0D01*
G03X2343995Y-11219186I-48368J-126909D01*
G01X2263995Y-11219186D01*
G03X2263995Y-11490814I0J-135814D01*
G01X2343995Y-11490814D01*
G03X2476597Y-11384363I0J135814D01*
G03X3240193Y-11362342I373404J302111D01*
G01X3240193Y-11455000D01*
G03X3276007Y-11490814I35814J0D01*
G01X3377436Y-11490814D01*
G03X3480971Y-11523282I60251J10817D01*
G01X3513440Y-11490814D01*
G01X3556007Y-11490814D01*
G03X3591821Y-11455000I0J35814D01*
G01X3591821Y-11412433D01*
G01X4728789Y-10275465D01*
G03X4746718Y-10232180I-43285J43285D01*
G01X4746718Y-7960087D01*
G03X4685504Y-7868270I-61214J25503D01*
G03X4624290Y-7960087I0J-66314D01*
G01X4624290Y-10206824D01*
G01X3589303Y-11241811D01*
G03X3556007Y-11219186I-33297J-13190D01*
G01X3310381Y-11219186D01*
G03X3330314Y-11082251I-460381J136935D01*
G01X3330314Y-9075646D01*
G01X5808954Y-6597006D01*
G01X7462693Y-6597006D01*
G03X7462693Y-5636378I0J480314D01*
G01X5610001Y-5636378D01*
G03X5270368Y-5777059I0J-480314D01*
G01X5247792Y-5799635D01*
G01X4767249Y-5799635D01*
G01X3953187Y-4985572D01*
G01X5065645Y-4985572D01*
G03X5108930Y-4967643I0J61214D01*
G01X7294187Y-2782386D01*
G01X7294187Y-2800000D01*
G03X7525814Y-2800000I115814J0D01*
G01X7525814Y-2460000D01*
G03X7294187Y-2460000I-115814J0D01*
G01X7294187Y-2609247D01*
G01X5040290Y-4863144D01*
G01X3846448Y-4863144D01*
G03X3803163Y-4881073I0J-61214D01*
G01X3235567Y-5448669D01*
G03X2926004Y-5196003I-167566J110669D01*
G03X3178670Y-5505566I141997J-141997D01*
G01X2465453Y-6218784D01*
G01X1989918Y-6218784D01*
G03X1754188Y-6280006I-109916J-61218D01*
G03X1989922Y-6341212I125814J4D01*
G01X2490808Y-6341212D01*
G03X2534093Y-6323282I0J61214D01*
G01X3823208Y-5034168D01*
G03X3853044Y-5058568I55088J36918D01*
G01X4698609Y-5904133D01*
G03X4741894Y-5922063I43285J43285D01*
G01X5125364Y-5922063D01*
G01X4753135Y-6294292D01*
G03X4713436Y-6246350I-64951J-13376D01*
G01X4292199Y-5825113D01*
G01X4292199Y-5621972D01*
G03X4230985Y-5530155I-61214J25503D01*
G03X4169771Y-5621972I0J-66314D01*
G01X4169771Y-5850469D01*
G03X4187700Y-5893753I61214J0D01*
G01X4626866Y-6332919D01*
G03X4674808Y-6372619I61318J25252D01*
G01X2510367Y-8537060D01*
G01X2052001Y-5137186D02*
G03X2052001Y-5538814I0J-200814D01*
G03X2052001Y-5137186I0J200814D01*
G01X2052001Y-4121186D02*
G03X2052001Y-4522814I0J-200814D01*
G03X2052001Y-4121186I0J200814D01*
G01X2135007Y-2895482D02*
G03X2135007Y-2663855I0J115814D01*
G03X2135007Y-2895482I0J-115814D01*
G01X3068001Y-4121186D02*
G03X3068001Y-4522814I0J-200814D01*
G03X3068001Y-4121186I0J200814D01*
G01X3124999Y-7590813D02*
G01X3394999Y-7590813D01*
G03X3394999Y-7369185I0J110814D01*
G01X3124999Y-7369185D01*
G03X3124999Y-7590813I0J-110814D01*
G01X4595806Y-11818651D02*
G03X4224179Y-11818651I-185814J0D01*
G03X4595806Y-11818651I185814J0D01*
G01X5195787Y-11831351D02*
G03X4824160Y-11831351I-185814J0D01*
G03X5195787Y-11831351I185814J0D01*
G01X5094187Y-2780000D02*
G03X5325815Y-2780000I115814J0D01*
G03X5094187Y-2780000I-115814J0D01*
G01X5554693Y-7510662D02*
G03X5554693Y-7259035I0J125814D01*
G03X5554693Y-7510662I0J-125814D01*
G01X5594186Y-2780000D02*
G03X5825814Y-2780000I115814J0D01*
G03X5594186Y-2780000I-115814J0D01*
G01X6043995Y-11219186D02*
G01X5963995Y-11219186D01*
G03X5963995Y-11490814I0J-135814D01*
G01X6043995Y-11490814D01*
G03X6043995Y-11219186I0J135814D01*
G01X6446693Y-7333506D02*
G03X6446693Y-6931879I0J200814D01*
G03X6446693Y-7333506I0J-200814D01*
G01X6600001Y-11219186D02*
G01X6520001Y-11219186D01*
G03X6520001Y-11490814I0J-135814D01*
G01X6600001Y-11490814D01*
G03X6735491Y-11364368I0J135814D01*
G01X6894406Y-11523283D01*
G03X6937692Y-11541214I43286J43284D01*
G01X7116007Y-11541214D01*
G03X7176258Y-11490814I0J61214D01*
G01X7256007Y-11490814D01*
G03X7291821Y-11455000I0J35814D01*
G01X7291821Y-11255000D01*
G03X7256007Y-11219186I-35814J0D01*
G01X6976007Y-11219186D01*
G03X6940193Y-11255000I0J-35814D01*
G01X6940193Y-11395931D01*
G01X6832194Y-11287932D01*
G01X6832194Y-9939963D01*
G03X6770980Y-9848147I-61214J25503D01*
G03X6709766Y-9939963I0J-66314D01*
G01X6709766Y-11275019D01*
G03X6600001Y-11219186I-109765J-79981D01*
G01X6794188Y-2460000D02*
G01X6794188Y-2800000D01*
G03X7025815Y-2800000I115814J0D01*
G01X7025815Y-2460000D01*
G03X6794188Y-2460000I-115814J0D01*
G01X7462693Y-7333506D02*
G03X7462693Y-6931879I0J200814D01*
G03X7462693Y-7333506I0J-200814D01*
G01X8295806Y-11818651D02*
G03X7924179Y-11818651I-185814J0D01*
G03X8295806Y-11818651I185814J0D01*
G54D11*
G01X1880002Y-7479999D02*
G01X1764348Y-7479999D01*
G01X1880002Y-7479999D02*
G01X1995656Y-7479999D01*
G01X1880002Y-7479999D02*
G01X1880002Y-7364345D01*
G01X1880002Y-7479999D02*
G01X1880002Y-7595653D01*
G01X2052001Y-4322000D02*
G01X2052001Y-4131346D01*
G01X2052001Y-4322000D02*
G01X2052001Y-4512654D01*
G01X2052001Y-4322000D02*
G01X2242654Y-4322000D01*
G01X2052001Y-4322000D02*
G01X1861347Y-4322000D01*
G01X2135007Y-2779669D02*
G01X2135007Y-2885322D01*
G01X2135007Y-2779669D02*
G01X2135007Y-2674015D01*
G01X2135007Y-2779669D02*
G01X2029353Y-2779669D01*
G01X2135007Y-2779669D02*
G01X2240660Y-2779669D01*
G01X3068001Y-4322000D02*
G01X3068001Y-4131346D01*
G01X3068001Y-4322000D02*
G01X3068001Y-4512654D01*
G01X3068001Y-4322000D02*
G01X3258654Y-4322000D01*
G01X3068001Y-4322000D02*
G01X2877347Y-4322000D01*
G01X5710000Y-2780000D02*
G01X5604346Y-2780000D01*
G01X5710000Y-2780000D02*
G01X5815654Y-2780000D01*
G01X5710000Y-2780000D02*
G01X5710000Y-2674346D01*
G01X5710000Y-2780000D02*
G01X5710000Y-2885654D01*
G01X2303995Y-11355000D02*
G01X2303995Y-11229346D01*
G01X2303995Y-11355000D02*
G01X2303995Y-11480654D01*
G01X2303995Y-11355000D02*
G01X2138341Y-11355000D01*
G01X4409993Y-11818651D02*
G01X4585646Y-11818651D01*
G01X4409993Y-11818651D02*
G01X4234339Y-11818651D01*
G01X4409993Y-11818651D02*
G01X4409993Y-11994304D01*
G01X4409993Y-11818651D02*
G01X4409993Y-11642997D01*
G01X1309974Y-11831351D02*
G01X1485627Y-11831351D01*
G01X1309974Y-11831351D02*
G01X1134320Y-11831351D01*
G01X1309974Y-11831351D02*
G01X1309974Y-12007004D01*
G01X1309974Y-11831351D02*
G01X1309974Y-11655697D01*
G01X8109993Y-11818651D02*
G01X8285646Y-11818651D01*
G01X8109993Y-11818651D02*
G01X7934339Y-11818651D01*
G01X8109993Y-11818651D02*
G01X8109993Y-11994304D01*
G01X8109993Y-11818651D02*
G01X8109993Y-11642997D01*
G01X5009973Y-11831351D02*
G01X5185627Y-11831351D01*
G01X5009973Y-11831351D02*
G01X4834320Y-11831351D01*
G01X5009973Y-11831351D02*
G01X5009973Y-12007004D01*
G01X5009973Y-11831351D02*
G01X5009973Y-11655697D01*
G01X6003995Y-11355000D02*
G01X6003995Y-11229346D01*
G01X6003995Y-11355000D02*
G01X6003995Y-11480654D01*
G01X6003995Y-11355000D02*
G01X6169649Y-11355000D01*
G01X6003995Y-11355000D02*
G01X5838341Y-11355000D01*
G04 Copper End*

G04 Pad Start*
G54D12*
G01X5554693Y-5860848D03*
G01X5554693Y-7384848D03*
G54D13*
G01X5710000Y-2780000D03*
G01X5210001Y-2780000D03*
G01X2135007Y-2779669D03*
G01X1784995Y-2779669D03*
G54D14*
G01X3416007Y-11355000D03*
G54D15*
G01X2860001Y-11355000D03*
G01X2303995Y-11355000D03*
G54D14*
G01X7116007Y-11355000D03*
G54D15*
G01X6560001Y-11355000D03*
G01X6003995Y-11355000D03*
G54D16*
G01X6446693Y-7132692D03*
G01X6446693Y-6116692D03*
G01X7462693Y-6116692D03*
G01X7462693Y-7132692D03*
G01X3068001Y-4322000D03*
G01X3068001Y-5338000D03*
G01X2052001Y-5338000D03*
G01X2052001Y-4322000D03*
G54D12*
G01X1880002Y-7479999D03*
G01X1880002Y-6280001D03*
G54D17*
G01X1660002Y-6880000D03*
G54D19*
G01X3259999Y-7479999D03*
G54D20*
G01X6910001Y-2630000D03*
G01X7410000Y-2630000D03*
G54D21*
G01X4409993Y-11818651D03*
G01X1309974Y-11831351D03*
G01X8109993Y-11818651D03*
G01X5009973Y-11831351D03*
G04 Pad End*

G04 Via Start*
G54D22*
G01X4911043Y-5750187D03*
G01X4610001Y-4680000D03*
G01X4870688Y-4850674D03*
G01X5460001Y-3230000D03*
G01X2760001Y-2330000D03*
G01X3160001Y-2330000D03*
G01X3160001Y-2730000D03*
G01X2760001Y-2730000D03*
G01X2410001Y-3317866D03*
G01X3310001Y-3230000D03*
G01X4685504Y-7934584D03*
G01X4230985Y-5596469D03*
G01X4688184Y-6307668D03*
G01X6770980Y-9914460D03*
G01X3878296Y-4997250D03*
G04 Via End*

G04 Track Start*
G54D23*
G01X6446693Y-6116692D02*
G01X7462693Y-6116692D01*
G01X6446693Y-6116692D02*
G01X5610001Y-6116692D01*
G54D24*
G01X4685504Y-7934584D02*
G01X4685504Y-10232180D01*
G01X3437687Y-11479997D01*
G01X4230985Y-5596469D02*
G01X4230985Y-5850469D01*
G01X4688184Y-6307668D01*
G01X6770980Y-9914460D02*
G01X6770980Y-11313288D01*
G01X6937689Y-11479997D01*
G01X5554692Y-5860849D02*
G01X4741894Y-5860849D01*
G01X3878296Y-4997250D01*
G01X7359998Y-2630005D02*
G01X5065645Y-4924358D01*
G01X3846448Y-4924358D01*
G01X2490808Y-6279998D01*
G01X1880000Y-6279998D01*
G54D23*
G01X5610001Y-6116692D02*
G01X2850000Y-8876693D01*
G54D24*
G01X6937692Y-11480000D02*
G01X7116007Y-11480000D01*
G54D23*
G01X2850000Y-8876693D02*
G01X2850000Y-11082251D01*
G04 Track End*

M02*

