G04 Layer: TopSilkscreenLayer*
G04 EasyEDA Pro v3.2.148, 2026-08-19 12:09:32*
G04 Gerber Generator version 0.3*
G04 Scale: 100 percent, Rotated: No, Reflected: No*
G04 Dimensions in millimeters*
G04 Leading zeros omitted, absolute positions, 4 integers and 5 decimals*
G04 Generated by one-click*
G04 Object Configs: Pad,Via,Track,Text,Image,Dimension,BoardOutline,BoardCutout,CopperFilled,SolidRegion,FPCStiffener,Line,PlaneZone,ComponentProperty,ComponentSilkscreen,TearDrop*
G04 Layer Configs: 1,2,3,4,5,6,7,8,9,10,11,13,14,56*
G04 Copper Areas: 0*
%FSLAX45Y45*%
%MOMM*%
%ADD10C,0.381*%
%ADD11C,0.2032*%
%ADD12C,0.254*%
%ADD13C,0.1524*%
%ADD14C,0.20066*%
%ADD15C,0.24892*%
%ADD16C,0.15001*%
%ADD17C,0.3076*%
%ADD18C,0.3*%
%ADD19C,0.39878*%
%ADD20C,0.508*%
G75*


G04 Image Start*
G36*
G01X5483920Y-5058271D02*
G01X5368899Y-5058450D01*
G01X5253611Y-5058399D01*
G01X5199563Y-5058085D01*
G01X5195936Y-5057280D01*
G01X5192519Y-5056050D01*
G01X5189331Y-5054432D01*
G01X5186390Y-5052461D01*
G01X5183715Y-5050175D01*
G01X5181324Y-5047607D01*
G01X5179236Y-5044795D01*
G01X5177469Y-5041773D01*
G01X5176041Y-5038579D01*
G01X5174971Y-5035248D01*
G01X5174277Y-5031815D01*
G01X5173978Y-5028317D01*
G01X5174092Y-5024790D01*
G01X5174638Y-5021269D01*
G01X5175634Y-5017790D01*
G01X5177098Y-5014389D01*
G01X5191190Y-4989402D01*
G01X5340344Y-4989402D01*
G01X5340628Y-4995428D01*
G01X5341915Y-5000890D01*
G01X5344135Y-5005713D01*
G01X5347217Y-5009823D01*
G01X5351092Y-5013144D01*
G01X5355691Y-5015604D01*
G01X5360944Y-5017126D01*
G01X5360944Y-5017126D01*
G01X5366781Y-5017638D01*
G01X5371935Y-5017212D01*
G01X5376658Y-5015996D01*
G01X5380900Y-5014037D01*
G01X5384608Y-5011380D01*
G01X5387729Y-5008070D01*
G01X5390211Y-5004154D01*
G01X5392002Y-4999677D01*
G01X5393050Y-4994685D01*
G01X5393247Y-4989256D01*
G01X5392492Y-4984107D01*
G01X5390853Y-4979339D01*
G01X5388401Y-4975049D01*
G01X5385207Y-4971338D01*
G01X5381339Y-4968303D01*
G01X5376868Y-4966044D01*
G01X5371864Y-4964661D01*
G01X5365734Y-4964211D01*
G01X5359973Y-4964976D01*
G01X5354708Y-4966853D01*
G01X5350069Y-4969743D01*
G01X5346185Y-4973543D01*
G01X5343183Y-4978154D01*
G01X5341193Y-4983474D01*
G01X5340344Y-4989402D01*
G01X5191190Y-4989402D01*
G01X5292414Y-4809908D01*
G01X5339803Y-4809908D01*
G01X5353614Y-4931214D01*
G01X5354975Y-4935505D01*
G01X5357321Y-4939028D01*
G01X5360500Y-4941614D01*
G01X5360500Y-4941614D01*
G01X5364361Y-4943097D01*
G01X5367284Y-4943452D01*
G01X5370074Y-4943281D01*
G01X5372685Y-4942613D01*
G01X5375069Y-4941475D01*
G01X5377180Y-4939897D01*
G01X5378971Y-4937906D01*
G01X5380394Y-4935531D01*
G01X5381404Y-4932801D01*
G01X5388677Y-4871753D01*
G01X5395461Y-4810040D01*
G01X5395262Y-4807316D01*
G01X5394681Y-4804816D01*
G01X5393743Y-4802572D01*
G01X5392473Y-4800614D01*
G01X5390896Y-4798974D01*
G01X5389036Y-4797684D01*
G01X5386919Y-4796776D01*
G01X5384570Y-4796279D01*
G01X5367446Y-4796079D01*
G01X5350548Y-4796295D01*
G01X5348296Y-4796821D01*
G01X5346242Y-4797759D01*
G01X5344418Y-4799073D01*
G01X5342854Y-4800722D01*
G01X5341580Y-4802669D01*
G01X5340626Y-4804875D01*
G01X5340024Y-4807301D01*
G01X5339803Y-4809908D01*
G01X5292414Y-4809908D01*
G01X5341577Y-4722730D01*
G01X5345223Y-4717894D01*
G01X5349927Y-4713872D01*
G01X5355463Y-4710820D01*
G01X5361607Y-4708894D01*
G01X5368330Y-4708461D01*
G01X5374910Y-4709201D01*
G01X5380705Y-4711313D01*
G01X5385813Y-4714365D01*
G01X5390154Y-4718300D01*
G01X5393649Y-4723058D01*
G01X5558234Y-5014874D01*
G01X5559975Y-5019280D01*
G01X5560967Y-5023847D01*
G01X5561226Y-5028487D01*
G01X5560767Y-5033113D01*
G01X5559606Y-5037638D01*
G01X5557757Y-5041975D01*
G01X5555238Y-5046035D01*
G01X5552062Y-5049732D01*
G01X5548845Y-5052552D01*
G01X5545382Y-5054802D01*
G01X5541536Y-5056559D01*
G01X5537168Y-5057898D01*
G01X5483920Y-5058271D01*
G37*
G04 Image End*

G04 Text Start*
G54D10*
G01X5177471Y-4127524D02*
G01X5177471Y-4302530D01*
G01X5119051Y-4127524D02*
G01X5235637Y-4127524D01*
G01X5313869Y-4127524D02*
G01X5313869Y-4302530D01*
G01X5313869Y-4127524D02*
G01X5388799Y-4127524D01*
G01X5413691Y-4135906D01*
G01X5422073Y-4144288D01*
G01X5430455Y-4161052D01*
G01X5430455Y-4185944D01*
G01X5422073Y-4202708D01*
G01X5413691Y-4210836D01*
G01X5388799Y-4219218D01*
G01X5313869Y-4219218D01*
G01X5625273Y-4152670D02*
G01X5608509Y-4135906D01*
G01X5583617Y-4127524D01*
G01X5550343Y-4127524D01*
G01X5525197Y-4135906D01*
G01X5508687Y-4152670D01*
G01X5508687Y-4169180D01*
G01X5516815Y-4185944D01*
G01X5525197Y-4194326D01*
G01X5541961Y-4202708D01*
G01X5591999Y-4219218D01*
G01X5608509Y-4227600D01*
G01X5616891Y-4235982D01*
G01X5625273Y-4252492D01*
G01X5625273Y-4277638D01*
G01X5608509Y-4294402D01*
G01X5583617Y-4302530D01*
G01X5550343Y-4302530D01*
G01X5525197Y-4294402D01*
G01X5508687Y-4277638D01*
G01X5711633Y-4169180D02*
G01X5711633Y-4161052D01*
G01X5720015Y-4144288D01*
G01X5728397Y-4135906D01*
G01X5745161Y-4127524D01*
G01X5778435Y-4127524D01*
G01X5794945Y-4135906D01*
G01X5803327Y-4144288D01*
G01X5811709Y-4161052D01*
G01X5811709Y-4177562D01*
G01X5803327Y-4194326D01*
G01X5786817Y-4219218D01*
G01X5703505Y-4302530D01*
G01X5820091Y-4302530D01*
G01X5939979Y-4127524D02*
G01X5914833Y-4135906D01*
G01X5906451Y-4152670D01*
G01X5906451Y-4169180D01*
G01X5914833Y-4185944D01*
G01X5931597Y-4194326D01*
G01X5964871Y-4202708D01*
G01X5989763Y-4210836D01*
G01X6006527Y-4227600D01*
G01X6014909Y-4244364D01*
G01X6014909Y-4269256D01*
G01X6006527Y-4286020D01*
G01X5998145Y-4294402D01*
G01X5973253Y-4302530D01*
G01X5939979Y-4302530D01*
G01X5914833Y-4294402D01*
G01X5906451Y-4286020D01*
G01X5898323Y-4269256D01*
G01X5898323Y-4244364D01*
G01X5906451Y-4227600D01*
G01X5923215Y-4210836D01*
G01X5948107Y-4202708D01*
G01X5981635Y-4194326D01*
G01X5998145Y-4185944D01*
G01X6006527Y-4169180D01*
G01X6006527Y-4152670D01*
G01X5998145Y-4135906D01*
G01X5973253Y-4127524D01*
G01X5939979Y-4127524D01*
G01X6093141Y-4161052D02*
G01X6109651Y-4152670D01*
G01X6134797Y-4127524D01*
G01X6134797Y-4302530D01*
G01X6296341Y-4127524D02*
G01X6213029Y-4244364D01*
G01X6337997Y-4244364D01*
G01X6296341Y-4127524D02*
G01X6296341Y-4302530D01*
G01X6719505Y-4127524D02*
G01X6602919Y-4302530D01*
G01X6602919Y-4127524D02*
G01X6719505Y-4127524D01*
G01X6602919Y-4302530D02*
G01X6719505Y-4302530D01*
G01X6797737Y-4127524D02*
G01X6864285Y-4302530D01*
G01X6931087Y-4127524D02*
G01X6864285Y-4302530D01*
G01X7125905Y-4152670D02*
G01X7109141Y-4135906D01*
G01X7084249Y-4127524D01*
G01X7050975Y-4127524D01*
G01X7025829Y-4135906D01*
G01X7009319Y-4152670D01*
G01X7009319Y-4169180D01*
G01X7017447Y-4185944D01*
G01X7025829Y-4194326D01*
G01X7042593Y-4202708D01*
G01X7092631Y-4219218D01*
G01X7109141Y-4227600D01*
G01X7117523Y-4235982D01*
G01X7125905Y-4252492D01*
G01X7125905Y-4277638D01*
G01X7109141Y-4294402D01*
G01X7084249Y-4302530D01*
G01X7050975Y-4302530D01*
G01X7025829Y-4294402D01*
G01X7009319Y-4277638D01*
G01X7390827Y-4127524D02*
G01X7390827Y-4302530D01*
G01X7390827Y-4127524D02*
G01X7448993Y-4127524D01*
G01X7474139Y-4135906D01*
G01X7490649Y-4152670D01*
G01X7499031Y-4169180D01*
G01X7507413Y-4194326D01*
G01X7507413Y-4235982D01*
G01X7499031Y-4260874D01*
G01X7490649Y-4277638D01*
G01X7474139Y-4294402D01*
G01X7448993Y-4302530D01*
G01X7390827Y-4302530D01*
G01X7585645Y-4185944D02*
G01X7585645Y-4302530D01*
G01X7585645Y-4235982D02*
G01X7593773Y-4210836D01*
G01X7610537Y-4194326D01*
G01X7627301Y-4185944D01*
G01X7652193Y-4185944D01*
G01X7730425Y-4127524D02*
G01X7738553Y-4135906D01*
G01X7746935Y-4127524D01*
G01X7738553Y-4119142D01*
G01X7730425Y-4127524D01*
G01X7738553Y-4185944D02*
G01X7738553Y-4302530D01*
G01X7825167Y-4185944D02*
G01X7874951Y-4302530D01*
G01X7924989Y-4185944D02*
G01X7874951Y-4302530D01*
G01X8003221Y-4235982D02*
G01X8103043Y-4235982D01*
G01X8103043Y-4219218D01*
G01X8094661Y-4202708D01*
G01X8086533Y-4194326D01*
G01X8069769Y-4185944D01*
G01X8044877Y-4185944D01*
G01X8028113Y-4194326D01*
G01X8011349Y-4210836D01*
G01X8003221Y-4235982D01*
G01X8003221Y-4252492D01*
G01X8011349Y-4277638D01*
G01X8028113Y-4294402D01*
G01X8044877Y-4302530D01*
G01X8069769Y-4302530D01*
G01X8086533Y-4294402D01*
G01X8103043Y-4277638D01*
G01X8181275Y-4185944D02*
G01X8181275Y-4302530D01*
G01X8181275Y-4235982D02*
G01X8189403Y-4210836D01*
G01X8206167Y-4194326D01*
G01X8222931Y-4185944D01*
G01X8247823Y-4185944D01*
G54D11*
G01X5684138Y-4597070D02*
G01X5704712Y-4683684D01*
G01X5725540Y-4597070D02*
G01X5704712Y-4683684D01*
G01X5725540Y-4597070D02*
G01X5746114Y-4683684D01*
G01X5766688Y-4597070D02*
G01X5746114Y-4683684D01*
G01X5839840Y-4597070D02*
G01X5806820Y-4683684D01*
G01X5839840Y-4597070D02*
G01X5872860Y-4683684D01*
G01X5819266Y-4654982D02*
G01X5860414Y-4654982D01*
G01X5912992Y-4597070D02*
G01X5912992Y-4683684D01*
G01X5912992Y-4597070D02*
G01X5950076Y-4597070D01*
G01X5962522Y-4601134D01*
G01X5966586Y-4605452D01*
G01X5970904Y-4613580D01*
G01X5970904Y-4621962D01*
G01X5966586Y-4630090D01*
G01X5962522Y-4634154D01*
G01X5950076Y-4638472D01*
G01X5912992Y-4638472D01*
G01X5941948Y-4638472D02*
G01X5970904Y-4683684D01*
G01X6011036Y-4597070D02*
G01X6011036Y-4683684D01*
G01X6011036Y-4597070D02*
G01X6068948Y-4683684D01*
G01X6068948Y-4597070D02*
G01X6068948Y-4683684D01*
G01X6109080Y-4597070D02*
G01X6109080Y-4683684D01*
G01X6149212Y-4597070D02*
G01X6149212Y-4683684D01*
G01X6149212Y-4597070D02*
G01X6207124Y-4683684D01*
G01X6207124Y-4597070D02*
G01X6207124Y-4683684D01*
G01X6309232Y-4617644D02*
G01X6305168Y-4609516D01*
G01X6296786Y-4601134D01*
G01X6288658Y-4597070D01*
G01X6272148Y-4597070D01*
G01X6263766Y-4601134D01*
G01X6255638Y-4609516D01*
G01X6251320Y-4617644D01*
G01X6247256Y-4630090D01*
G01X6247256Y-4650664D01*
G01X6251320Y-4663110D01*
G01X6255638Y-4671492D01*
G01X6263766Y-4679620D01*
G01X6272148Y-4683684D01*
G01X6288658Y-4683684D01*
G01X6296786Y-4679620D01*
G01X6305168Y-4671492D01*
G01X6309232Y-4663110D01*
G01X6309232Y-4650664D01*
G01X6288658Y-4650664D02*
G01X6309232Y-4650664D01*
G01X6353428Y-4634154D02*
G01X6349364Y-4638472D01*
G01X6353428Y-4642536D01*
G01X6357746Y-4638472D01*
G01X6353428Y-4634154D01*
G01X6353428Y-4663110D02*
G01X6349364Y-4667174D01*
G01X6353428Y-4671492D01*
G01X6357746Y-4667174D01*
G01X6353428Y-4663110D01*
G01X5713094Y-4749470D02*
G01X5713094Y-4836084D01*
G01X5684138Y-4749470D02*
G01X5742050Y-4749470D01*
G01X5782182Y-4749470D02*
G01X5782182Y-4836084D01*
G01X5782182Y-4794936D02*
G01X5794628Y-4782490D01*
G01X5802756Y-4778426D01*
G01X5815202Y-4778426D01*
G01X5823584Y-4782490D01*
G01X5827648Y-4794936D01*
G01X5827648Y-4836084D01*
G01X5867780Y-4803064D02*
G01X5917310Y-4803064D01*
G01X5917310Y-4794936D01*
G01X5913246Y-4786554D01*
G01X5909182Y-4782490D01*
G01X5900800Y-4778426D01*
G01X5888354Y-4778426D01*
G01X5880226Y-4782490D01*
G01X5871844Y-4790872D01*
G01X5867780Y-4803064D01*
G01X5867780Y-4811446D01*
G01X5871844Y-4823892D01*
G01X5880226Y-4832020D01*
G01X5888354Y-4836084D01*
G01X5900800Y-4836084D01*
G01X5909182Y-4832020D01*
G01X5917310Y-4823892D01*
G01X6049898Y-4749470D02*
G01X6049898Y-4836084D01*
G01X6110604Y-4778426D02*
G01X6102476Y-4782490D01*
G01X6094094Y-4790872D01*
G01X6090030Y-4803064D01*
G01X6090030Y-4811446D01*
G01X6094094Y-4823892D01*
G01X6102476Y-4832020D01*
G01X6110604Y-4836084D01*
G01X6123050Y-4836084D01*
G01X6131432Y-4832020D01*
G01X6139560Y-4823892D01*
G01X6143624Y-4811446D01*
G01X6143624Y-4803064D01*
G01X6139560Y-4790872D01*
G01X6131432Y-4782490D01*
G01X6123050Y-4778426D01*
G01X6110604Y-4778426D01*
G01X6183756Y-4778426D02*
G01X6200266Y-4836084D01*
G01X6216776Y-4778426D02*
G01X6200266Y-4836084D01*
G01X6216776Y-4778426D02*
G01X6233286Y-4836084D01*
G01X6249796Y-4778426D02*
G01X6233286Y-4836084D01*
G01X6289928Y-4803064D02*
G01X6339458Y-4803064D01*
G01X6339458Y-4794936D01*
G01X6335394Y-4786554D01*
G01X6331330Y-4782490D01*
G01X6322948Y-4778426D01*
G01X6310502Y-4778426D01*
G01X6302374Y-4782490D01*
G01X6293992Y-4790872D01*
G01X6289928Y-4803064D01*
G01X6289928Y-4811446D01*
G01X6293992Y-4823892D01*
G01X6302374Y-4832020D01*
G01X6310502Y-4836084D01*
G01X6322948Y-4836084D01*
G01X6331330Y-4832020D01*
G01X6339458Y-4823892D01*
G01X6379590Y-4778426D02*
G01X6379590Y-4836084D01*
G01X6379590Y-4803064D02*
G01X6383654Y-4790872D01*
G01X6392036Y-4782490D01*
G01X6400164Y-4778426D01*
G01X6412610Y-4778426D01*
G01X6545198Y-4749470D02*
G01X6545198Y-4836084D01*
G01X6545198Y-4794936D02*
G01X6557644Y-4782490D01*
G01X6565772Y-4778426D01*
G01X6578218Y-4778426D01*
G01X6586600Y-4782490D01*
G01X6590664Y-4794936D01*
G01X6590664Y-4836084D01*
G01X6680326Y-4778426D02*
G01X6680326Y-4836084D01*
G01X6680326Y-4790872D02*
G01X6672198Y-4782490D01*
G01X6663816Y-4778426D01*
G01X6651370Y-4778426D01*
G01X6643242Y-4782490D01*
G01X6634860Y-4790872D01*
G01X6630796Y-4803064D01*
G01X6630796Y-4811446D01*
G01X6634860Y-4823892D01*
G01X6643242Y-4832020D01*
G01X6651370Y-4836084D01*
G01X6663816Y-4836084D01*
G01X6672198Y-4832020D01*
G01X6680326Y-4823892D01*
G01X6720458Y-4749470D02*
G01X6720458Y-4836084D01*
G01X6793610Y-4749470D02*
G01X6785482Y-4749470D01*
G01X6777100Y-4753534D01*
G01X6773036Y-4765980D01*
G01X6773036Y-4836084D01*
G01X6760590Y-4778426D02*
G01X6789546Y-4778426D01*
G01X6946772Y-4778426D02*
G01X6938644Y-4782490D01*
G01X6930262Y-4790872D01*
G01X6926198Y-4803064D01*
G01X6926198Y-4811446D01*
G01X6930262Y-4823892D01*
G01X6938644Y-4832020D01*
G01X6946772Y-4836084D01*
G01X6959218Y-4836084D01*
G01X6967600Y-4832020D01*
G01X6975728Y-4823892D01*
G01X6979792Y-4811446D01*
G01X6979792Y-4803064D01*
G01X6975728Y-4790872D01*
G01X6967600Y-4782490D01*
G01X6959218Y-4778426D01*
G01X6946772Y-4778426D01*
G01X7052944Y-4749470D02*
G01X7044816Y-4749470D01*
G01X7036434Y-4753534D01*
G01X7032370Y-4765980D01*
G01X7032370Y-4836084D01*
G01X7019924Y-4778426D02*
G01X7048880Y-4778426D01*
G01X7197978Y-4749470D02*
G01X7197978Y-4819574D01*
G01X7202042Y-4832020D01*
G01X7210424Y-4836084D01*
G01X7218552Y-4836084D01*
G01X7185532Y-4778426D02*
G01X7214488Y-4778426D01*
G01X7258684Y-4749470D02*
G01X7258684Y-4836084D01*
G01X7258684Y-4794936D02*
G01X7271130Y-4782490D01*
G01X7279258Y-4778426D01*
G01X7291704Y-4778426D01*
G01X7300086Y-4782490D01*
G01X7304150Y-4794936D01*
G01X7304150Y-4836084D01*
G01X7344282Y-4803064D02*
G01X7393812Y-4803064D01*
G01X7393812Y-4794936D01*
G01X7389748Y-4786554D01*
G01X7385684Y-4782490D01*
G01X7377302Y-4778426D01*
G01X7364856Y-4778426D01*
G01X7356728Y-4782490D01*
G01X7348346Y-4790872D01*
G01X7344282Y-4803064D01*
G01X7344282Y-4811446D01*
G01X7348346Y-4823892D01*
G01X7356728Y-4832020D01*
G01X7364856Y-4836084D01*
G01X7377302Y-4836084D01*
G01X7385684Y-4832020D01*
G01X7393812Y-4823892D01*
G01X7526400Y-4749470D02*
G01X7526400Y-4836084D01*
G01X7526400Y-4790872D02*
G01X7534782Y-4782490D01*
G01X7542910Y-4778426D01*
G01X7555356Y-4778426D01*
G01X7563484Y-4782490D01*
G01X7571866Y-4790872D01*
G01X7575930Y-4803064D01*
G01X7575930Y-4811446D01*
G01X7571866Y-4823892D01*
G01X7563484Y-4832020D01*
G01X7555356Y-4836084D01*
G01X7542910Y-4836084D01*
G01X7534782Y-4832020D01*
G01X7526400Y-4823892D01*
G01X7636636Y-4778426D02*
G01X7628508Y-4782490D01*
G01X7620126Y-4790872D01*
G01X7616062Y-4803064D01*
G01X7616062Y-4811446D01*
G01X7620126Y-4823892D01*
G01X7628508Y-4832020D01*
G01X7636636Y-4836084D01*
G01X7649082Y-4836084D01*
G01X7657464Y-4832020D01*
G01X7665592Y-4823892D01*
G01X7669656Y-4811446D01*
G01X7669656Y-4803064D01*
G01X7665592Y-4790872D01*
G01X7657464Y-4782490D01*
G01X7649082Y-4778426D01*
G01X7636636Y-4778426D01*
G01X7759318Y-4778426D02*
G01X7759318Y-4836084D01*
G01X7759318Y-4790872D02*
G01X7751190Y-4782490D01*
G01X7742808Y-4778426D01*
G01X7730362Y-4778426D01*
G01X7722234Y-4782490D01*
G01X7713852Y-4790872D01*
G01X7709788Y-4803064D01*
G01X7709788Y-4811446D01*
G01X7713852Y-4823892D01*
G01X7722234Y-4832020D01*
G01X7730362Y-4836084D01*
G01X7742808Y-4836084D01*
G01X7751190Y-4832020D01*
G01X7759318Y-4823892D01*
G01X7799450Y-4778426D02*
G01X7799450Y-4836084D01*
G01X7799450Y-4803064D02*
G01X7803514Y-4790872D01*
G01X7811896Y-4782490D01*
G01X7820024Y-4778426D01*
G01X7832470Y-4778426D01*
G01X7922132Y-4749470D02*
G01X7922132Y-4836084D01*
G01X7922132Y-4790872D02*
G01X7914004Y-4782490D01*
G01X7905622Y-4778426D01*
G01X7893176Y-4778426D01*
G01X7885048Y-4782490D01*
G01X7876666Y-4790872D01*
G01X7872602Y-4803064D01*
G01X7872602Y-4811446D01*
G01X7876666Y-4823892D01*
G01X7885048Y-4832020D01*
G01X7893176Y-4836084D01*
G01X7905622Y-4836084D01*
G01X7914004Y-4832020D01*
G01X7922132Y-4823892D01*
G01X5684138Y-4930826D02*
G01X5684138Y-4988484D01*
G01X5684138Y-4947336D02*
G01X5696584Y-4934890D01*
G01X5704712Y-4930826D01*
G01X5717158Y-4930826D01*
G01X5725540Y-4934890D01*
G01X5729604Y-4947336D01*
G01X5729604Y-4988484D01*
G01X5729604Y-4947336D02*
G01X5742050Y-4934890D01*
G01X5750178Y-4930826D01*
G01X5762624Y-4930826D01*
G01X5770752Y-4934890D01*
G01X5775070Y-4947336D01*
G01X5775070Y-4988484D01*
G01X5864732Y-4930826D02*
G01X5864732Y-4988484D01*
G01X5864732Y-4943272D02*
G01X5856604Y-4934890D01*
G01X5848222Y-4930826D01*
G01X5835776Y-4930826D01*
G01X5827648Y-4934890D01*
G01X5819266Y-4943272D01*
G01X5815202Y-4955464D01*
G01X5815202Y-4963846D01*
G01X5819266Y-4976292D01*
G01X5827648Y-4984420D01*
G01X5835776Y-4988484D01*
G01X5848222Y-4988484D01*
G01X5856604Y-4984420D01*
G01X5864732Y-4976292D01*
G01X5908928Y-4930826D02*
G01X5933820Y-4988484D01*
G01X5958458Y-4930826D02*
G01X5933820Y-4988484D01*
G01X5925438Y-5004994D01*
G01X5917310Y-5013376D01*
G01X5908928Y-5017440D01*
G01X5904864Y-5017440D01*
G01X6091046Y-4901870D02*
G01X6091046Y-4988484D01*
G01X6091046Y-4943272D02*
G01X6099428Y-4934890D01*
G01X6107556Y-4930826D01*
G01X6120002Y-4930826D01*
G01X6128130Y-4934890D01*
G01X6136512Y-4943272D01*
G01X6140576Y-4955464D01*
G01X6140576Y-4963846D01*
G01X6136512Y-4976292D01*
G01X6128130Y-4984420D01*
G01X6120002Y-4988484D01*
G01X6107556Y-4988484D01*
G01X6099428Y-4984420D01*
G01X6091046Y-4976292D01*
G01X6180708Y-4955464D02*
G01X6230238Y-4955464D01*
G01X6230238Y-4947336D01*
G01X6226174Y-4938954D01*
G01X6222110Y-4934890D01*
G01X6213728Y-4930826D01*
G01X6201282Y-4930826D01*
G01X6193154Y-4934890D01*
G01X6184772Y-4943272D01*
G01X6180708Y-4955464D01*
G01X6180708Y-4963846D01*
G01X6184772Y-4976292D01*
G01X6193154Y-4984420D01*
G01X6201282Y-4988484D01*
G01X6213728Y-4988484D01*
G01X6222110Y-4984420D01*
G01X6230238Y-4976292D01*
G01X6362826Y-4930826D02*
G01X6387718Y-4988484D01*
G01X6412356Y-4930826D02*
G01X6387718Y-4988484D01*
G01X6452488Y-4955464D02*
G01X6502018Y-4955464D01*
G01X6502018Y-4947336D01*
G01X6497954Y-4938954D01*
G01X6493890Y-4934890D01*
G01X6485508Y-4930826D01*
G01X6473062Y-4930826D01*
G01X6464934Y-4934890D01*
G01X6456552Y-4943272D01*
G01X6452488Y-4955464D01*
G01X6452488Y-4963846D01*
G01X6456552Y-4976292D01*
G01X6464934Y-4984420D01*
G01X6473062Y-4988484D01*
G01X6485508Y-4988484D01*
G01X6493890Y-4984420D01*
G01X6502018Y-4976292D01*
G01X6542150Y-4930826D02*
G01X6542150Y-4988484D01*
G01X6542150Y-4955464D02*
G01X6546214Y-4943272D01*
G01X6554596Y-4934890D01*
G01X6562724Y-4930826D01*
G01X6575170Y-4930826D01*
G01X6619366Y-4930826D02*
G01X6644258Y-4988484D01*
G01X6668896Y-4930826D02*
G01X6644258Y-4988484D01*
G01X6635876Y-5004994D01*
G01X6627748Y-5013376D01*
G01X6619366Y-5017440D01*
G01X6615302Y-5017440D01*
G01X6801484Y-4901870D02*
G01X6801484Y-4988484D01*
G01X6801484Y-4947336D02*
G01X6813930Y-4934890D01*
G01X6822058Y-4930826D01*
G01X6834504Y-4930826D01*
G01X6842886Y-4934890D01*
G01X6846950Y-4947336D01*
G01X6846950Y-4988484D01*
G01X6907656Y-4930826D02*
G01X6899528Y-4934890D01*
G01X6891146Y-4943272D01*
G01X6887082Y-4955464D01*
G01X6887082Y-4963846D01*
G01X6891146Y-4976292D01*
G01X6899528Y-4984420D01*
G01X6907656Y-4988484D01*
G01X6920102Y-4988484D01*
G01X6928484Y-4984420D01*
G01X6936612Y-4976292D01*
G01X6940676Y-4963846D01*
G01X6940676Y-4955464D01*
G01X6936612Y-4943272D01*
G01X6928484Y-4934890D01*
G01X6920102Y-4930826D01*
G01X6907656Y-4930826D01*
G01X6993254Y-4901870D02*
G01X6993254Y-4971974D01*
G01X6997318Y-4984420D01*
G01X7005700Y-4988484D01*
G01X7013828Y-4988484D01*
G01X6980808Y-4930826D02*
G01X7009764Y-4930826D01*
G01X7158862Y-4901870D02*
G01X7158862Y-4971974D01*
G01X7162926Y-4984420D01*
G01X7171308Y-4988484D01*
G01X7179436Y-4988484D01*
G01X7146416Y-4930826D02*
G01X7175372Y-4930826D01*
G01X7240142Y-4930826D02*
G01X7232014Y-4934890D01*
G01X7223632Y-4943272D01*
G01X7219568Y-4955464D01*
G01X7219568Y-4963846D01*
G01X7223632Y-4976292D01*
G01X7232014Y-4984420D01*
G01X7240142Y-4988484D01*
G01X7252588Y-4988484D01*
G01X7260970Y-4984420D01*
G01X7269098Y-4976292D01*
G01X7273162Y-4963846D01*
G01X7273162Y-4955464D01*
G01X7269098Y-4943272D01*
G01X7260970Y-4934890D01*
G01X7252588Y-4930826D01*
G01X7240142Y-4930826D01*
G01X7418196Y-4901870D02*
G01X7418196Y-4971974D01*
G01X7422260Y-4984420D01*
G01X7430642Y-4988484D01*
G01X7438770Y-4988484D01*
G01X7405750Y-4930826D02*
G01X7434706Y-4930826D01*
G01X7478902Y-4901870D02*
G01X7478902Y-4988484D01*
G01X7478902Y-4947336D02*
G01X7491348Y-4934890D01*
G01X7499476Y-4930826D01*
G01X7511922Y-4930826D01*
G01X7520304Y-4934890D01*
G01X7524368Y-4947336D01*
G01X7524368Y-4988484D01*
G01X7564500Y-4955464D02*
G01X7614030Y-4955464D01*
G01X7614030Y-4947336D01*
G01X7609966Y-4938954D01*
G01X7605902Y-4934890D01*
G01X7597520Y-4930826D01*
G01X7585074Y-4930826D01*
G01X7576946Y-4934890D01*
G01X7568564Y-4943272D01*
G01X7564500Y-4955464D01*
G01X7564500Y-4963846D01*
G01X7568564Y-4976292D01*
G01X7576946Y-4984420D01*
G01X7585074Y-4988484D01*
G01X7597520Y-4988484D01*
G01X7605902Y-4984420D01*
G01X7614030Y-4976292D01*
G01X7759064Y-4901870D02*
G01X7759064Y-4971974D01*
G01X7763128Y-4984420D01*
G01X7771510Y-4988484D01*
G01X7779638Y-4988484D01*
G01X7746618Y-4930826D02*
G01X7775574Y-4930826D01*
G01X7840344Y-4930826D02*
G01X7832216Y-4934890D01*
G01X7823834Y-4943272D01*
G01X7819770Y-4955464D01*
G01X7819770Y-4963846D01*
G01X7823834Y-4976292D01*
G01X7832216Y-4984420D01*
G01X7840344Y-4988484D01*
G01X7852790Y-4988484D01*
G01X7861172Y-4984420D01*
G01X7869300Y-4976292D01*
G01X7873364Y-4963846D01*
G01X7873364Y-4955464D01*
G01X7869300Y-4943272D01*
G01X7861172Y-4934890D01*
G01X7852790Y-4930826D01*
G01X7840344Y-4930826D01*
G01X7913496Y-4930826D02*
G01X7913496Y-4971974D01*
G01X7917560Y-4984420D01*
G01X7925942Y-4988484D01*
G01X7938388Y-4988484D01*
G01X7946516Y-4984420D01*
G01X7958962Y-4971974D01*
G01X7958962Y-4930826D02*
G01X7958962Y-4988484D01*
G01X8048624Y-4943272D02*
G01X8040496Y-4934890D01*
G01X8032114Y-4930826D01*
G01X8019668Y-4930826D01*
G01X8011540Y-4934890D01*
G01X8003158Y-4943272D01*
G01X7999094Y-4955464D01*
G01X7999094Y-4963846D01*
G01X8003158Y-4976292D01*
G01X8011540Y-4984420D01*
G01X8019668Y-4988484D01*
G01X8032114Y-4988484D01*
G01X8040496Y-4984420D01*
G01X8048624Y-4976292D01*
G01X8088756Y-4901870D02*
G01X8088756Y-4988484D01*
G01X8088756Y-4947336D02*
G01X8101202Y-4934890D01*
G01X8109330Y-4930826D01*
G01X8121776Y-4930826D01*
G01X8130158Y-4934890D01*
G01X8134222Y-4947336D01*
G01X8134222Y-4988484D01*
G01X8182736Y-4971974D02*
G01X8178418Y-4976292D01*
G01X8174354Y-4971974D01*
G01X8178418Y-4967910D01*
G01X8182736Y-4971974D01*
G01X8182736Y-4980356D01*
G01X8174354Y-4988484D01*
G01X5684138Y-5107864D02*
G01X5733668Y-5107864D01*
G01X5733668Y-5099736D01*
G01X5729604Y-5091354D01*
G01X5725540Y-5087290D01*
G01X5717158Y-5083226D01*
G01X5704712Y-5083226D01*
G01X5696584Y-5087290D01*
G01X5688202Y-5095672D01*
G01X5684138Y-5107864D01*
G01X5684138Y-5116246D01*
G01X5688202Y-5128692D01*
G01X5696584Y-5136820D01*
G01X5704712Y-5140884D01*
G01X5717158Y-5140884D01*
G01X5725540Y-5136820D01*
G01X5733668Y-5128692D01*
G01X5819266Y-5095672D02*
G01X5815202Y-5087290D01*
G01X5802756Y-5083226D01*
G01X5790310Y-5083226D01*
G01X5777864Y-5087290D01*
G01X5773800Y-5095672D01*
G01X5777864Y-5103800D01*
G01X5786246Y-5107864D01*
G01X5806820Y-5112182D01*
G01X5815202Y-5116246D01*
G01X5819266Y-5124374D01*
G01X5819266Y-5128692D01*
G01X5815202Y-5136820D01*
G01X5802756Y-5140884D01*
G01X5790310Y-5140884D01*
G01X5777864Y-5136820D01*
G01X5773800Y-5128692D01*
G01X5859398Y-5083226D02*
G01X5859398Y-5169840D01*
G01X5859398Y-5095672D02*
G01X5867780Y-5087290D01*
G01X5875908Y-5083226D01*
G01X5888354Y-5083226D01*
G01X5896482Y-5087290D01*
G01X5904864Y-5095672D01*
G01X5908928Y-5107864D01*
G01X5908928Y-5116246D01*
G01X5904864Y-5128692D01*
G01X5896482Y-5136820D01*
G01X5888354Y-5140884D01*
G01X5875908Y-5140884D01*
G01X5867780Y-5136820D01*
G01X5859398Y-5128692D01*
G01X5949060Y-5107864D02*
G01X5998590Y-5107864D01*
G01X5998590Y-5099736D01*
G01X5994526Y-5091354D01*
G01X5990462Y-5087290D01*
G01X5982080Y-5083226D01*
G01X5969634Y-5083226D01*
G01X5961506Y-5087290D01*
G01X5953124Y-5095672D01*
G01X5949060Y-5107864D01*
G01X5949060Y-5116246D01*
G01X5953124Y-5128692D01*
G01X5961506Y-5136820D01*
G01X5969634Y-5140884D01*
G01X5982080Y-5140884D01*
G01X5990462Y-5136820D01*
G01X5998590Y-5128692D01*
G01X6088252Y-5095672D02*
G01X6080124Y-5087290D01*
G01X6071742Y-5083226D01*
G01X6059296Y-5083226D01*
G01X6051168Y-5087290D01*
G01X6042786Y-5095672D01*
G01X6038722Y-5107864D01*
G01X6038722Y-5116246D01*
G01X6042786Y-5128692D01*
G01X6051168Y-5136820D01*
G01X6059296Y-5140884D01*
G01X6071742Y-5140884D01*
G01X6080124Y-5136820D01*
G01X6088252Y-5128692D01*
G01X6128384Y-5054270D02*
G01X6132448Y-5058334D01*
G01X6136766Y-5054270D01*
G01X6132448Y-5050206D01*
G01X6128384Y-5054270D01*
G01X6132448Y-5083226D02*
G01X6132448Y-5140884D01*
G01X6226428Y-5083226D02*
G01X6226428Y-5140884D01*
G01X6226428Y-5095672D02*
G01X6218300Y-5087290D01*
G01X6209918Y-5083226D01*
G01X6197472Y-5083226D01*
G01X6189344Y-5087290D01*
G01X6180962Y-5095672D01*
G01X6176898Y-5107864D01*
G01X6176898Y-5116246D01*
G01X6180962Y-5128692D01*
G01X6189344Y-5136820D01*
G01X6197472Y-5140884D01*
G01X6209918Y-5140884D01*
G01X6218300Y-5136820D01*
G01X6226428Y-5128692D01*
G01X6266560Y-5054270D02*
G01X6266560Y-5140884D01*
G01X6306692Y-5054270D02*
G01X6306692Y-5140884D01*
G01X6350888Y-5083226D02*
G01X6375780Y-5140884D01*
G01X6400418Y-5083226D02*
G01X6375780Y-5140884D01*
G01X6367398Y-5157394D01*
G01X6359270Y-5165776D01*
G01X6350888Y-5169840D01*
G01X6346824Y-5169840D01*
G01X6545452Y-5054270D02*
G01X6545452Y-5124374D01*
G01X6549516Y-5136820D01*
G01X6557898Y-5140884D01*
G01X6566026Y-5140884D01*
G01X6533006Y-5083226D02*
G01X6561962Y-5083226D01*
G01X6606158Y-5054270D02*
G01X6606158Y-5140884D01*
G01X6606158Y-5099736D02*
G01X6618604Y-5087290D01*
G01X6626732Y-5083226D01*
G01X6639178Y-5083226D01*
G01X6647560Y-5087290D01*
G01X6651624Y-5099736D01*
G01X6651624Y-5140884D01*
G01X6691756Y-5107864D02*
G01X6741286Y-5107864D01*
G01X6741286Y-5099736D01*
G01X6737222Y-5091354D01*
G01X6733158Y-5087290D01*
G01X6724776Y-5083226D01*
G01X6712330Y-5083226D01*
G01X6704202Y-5087290D01*
G01X6695820Y-5095672D01*
G01X6691756Y-5107864D01*
G01X6691756Y-5116246D01*
G01X6695820Y-5128692D01*
G01X6704202Y-5136820D01*
G01X6712330Y-5140884D01*
G01X6724776Y-5140884D01*
G01X6733158Y-5136820D01*
G01X6741286Y-5128692D01*
G01X6873874Y-5054270D02*
G01X6877938Y-5058334D01*
G01X6882256Y-5054270D01*
G01X6877938Y-5050206D01*
G01X6873874Y-5054270D01*
G01X6877938Y-5083226D02*
G01X6877938Y-5140884D01*
G01X6922388Y-5083226D02*
G01X6922388Y-5140884D01*
G01X6922388Y-5099736D02*
G01X6934834Y-5087290D01*
G01X6942962Y-5083226D01*
G01X6955408Y-5083226D01*
G01X6963790Y-5087290D01*
G01X6967854Y-5099736D01*
G01X6967854Y-5140884D01*
G01X7057516Y-5054270D02*
G01X7057516Y-5140884D01*
G01X7057516Y-5095672D02*
G01X7049388Y-5087290D01*
G01X7041006Y-5083226D01*
G01X7028560Y-5083226D01*
G01X7020432Y-5087290D01*
G01X7012050Y-5095672D01*
G01X7007986Y-5107864D01*
G01X7007986Y-5116246D01*
G01X7012050Y-5128692D01*
G01X7020432Y-5136820D01*
G01X7028560Y-5140884D01*
G01X7041006Y-5140884D01*
G01X7049388Y-5136820D01*
G01X7057516Y-5128692D01*
G01X7097648Y-5083226D02*
G01X7097648Y-5124374D01*
G01X7101712Y-5136820D01*
G01X7110094Y-5140884D01*
G01X7122540Y-5140884D01*
G01X7130668Y-5136820D01*
G01X7143114Y-5124374D01*
G01X7143114Y-5083226D02*
G01X7143114Y-5140884D01*
G01X7232776Y-5095672D02*
G01X7224648Y-5087290D01*
G01X7216266Y-5083226D01*
G01X7203820Y-5083226D01*
G01X7195692Y-5087290D01*
G01X7187310Y-5095672D01*
G01X7183246Y-5107864D01*
G01X7183246Y-5116246D01*
G01X7187310Y-5128692D01*
G01X7195692Y-5136820D01*
G01X7203820Y-5140884D01*
G01X7216266Y-5140884D01*
G01X7224648Y-5136820D01*
G01X7232776Y-5128692D01*
G01X7285354Y-5054270D02*
G01X7285354Y-5124374D01*
G01X7289418Y-5136820D01*
G01X7297800Y-5140884D01*
G01X7305928Y-5140884D01*
G01X7272908Y-5083226D02*
G01X7301864Y-5083226D01*
G01X7366634Y-5083226D02*
G01X7358506Y-5087290D01*
G01X7350124Y-5095672D01*
G01X7346060Y-5107864D01*
G01X7346060Y-5116246D01*
G01X7350124Y-5128692D01*
G01X7358506Y-5136820D01*
G01X7366634Y-5140884D01*
G01X7379080Y-5140884D01*
G01X7387462Y-5136820D01*
G01X7395590Y-5128692D01*
G01X7399654Y-5116246D01*
G01X7399654Y-5107864D01*
G01X7395590Y-5095672D01*
G01X7387462Y-5087290D01*
G01X7379080Y-5083226D01*
G01X7366634Y-5083226D01*
G01X7439786Y-5083226D02*
G01X7439786Y-5140884D01*
G01X7439786Y-5107864D02*
G01X7443850Y-5095672D01*
G01X7452232Y-5087290D01*
G01X7460360Y-5083226D01*
G01X7472806Y-5083226D01*
G01X7558404Y-5095672D02*
G01X7554340Y-5087290D01*
G01X7541894Y-5083226D01*
G01X7529448Y-5083226D01*
G01X7517002Y-5087290D01*
G01X7512938Y-5095672D01*
G01X7517002Y-5103800D01*
G01X7525384Y-5107864D01*
G01X7545958Y-5112182D01*
G01X7554340Y-5116246D01*
G01X7558404Y-5124374D01*
G01X7558404Y-5128692D01*
G01X7554340Y-5136820D01*
G01X7541894Y-5140884D01*
G01X7529448Y-5140884D01*
G01X7517002Y-5136820D01*
G01X7512938Y-5128692D01*
G01X7602600Y-5120310D02*
G01X7598536Y-5124374D01*
G01X7602600Y-5128692D01*
G01X7606918Y-5124374D01*
G01X7602600Y-5120310D01*
G54D10*
G01X1187764Y-5352464D02*
G01X1344736Y-5352464D01*
G01X1266250Y-5430950D02*
G01X1266250Y-5273724D01*
G01X1266250Y-4411394D02*
G01X1266250Y-4254168D01*
G54D12*
G01X8182407Y-6737228D02*
G01X8332267Y-6837304D01*
G01X8182407Y-6837304D02*
G01X8182407Y-6737228D01*
G01X8332267Y-6837304D02*
G01X8332267Y-6737228D01*
G01X8182407Y-6677538D02*
G01X8332267Y-6620388D01*
G01X8182407Y-6563238D02*
G01X8332267Y-6620388D01*
G01X8203743Y-6403472D02*
G01X8189519Y-6417696D01*
G01X8182407Y-6439286D01*
G01X8182407Y-6467734D01*
G01X8189519Y-6489324D01*
G01X8203743Y-6503548D01*
G01X8217967Y-6503548D01*
G01X8232191Y-6496436D01*
G01X8239557Y-6489324D01*
G01X8246669Y-6474846D01*
G01X8260893Y-6432174D01*
G01X8268005Y-6417696D01*
G01X8275117Y-6410584D01*
G01X8289341Y-6403472D01*
G01X8310931Y-6403472D01*
G01X8325155Y-6417696D01*
G01X8332267Y-6439286D01*
G01X8332267Y-6467734D01*
G01X8325155Y-6489324D01*
G01X8310931Y-6503548D01*
G04 Text End*

G04 PolygonModel Start*
G01X5980702Y-5772837D02*
G01X5980702Y-7472834D01*
G01X5130691Y-7472834D02*
G01X5130691Y-5772837D01*
G01X5130691Y-5772837D02*
G01X5483789Y-5772837D01*
G01X5625597Y-5772837D02*
G01X5980702Y-5772837D01*
G01X5980702Y-7472834D02*
G01X5625628Y-7472834D01*
G01X5483758Y-7472834D02*
G01X5130691Y-7472834D01*
G54D13*
G01X5769640Y-3298880D02*
G01X5769640Y-3439881D01*
G01X5950361Y-3439881D02*
G01X5950361Y-3298880D01*
G01X5935121Y-3283640D02*
G01X5784880Y-3283640D01*
G01X5769640Y-3661120D02*
G01X5769640Y-3520119D01*
G01X5950361Y-3520119D02*
G01X5950361Y-3661120D01*
G01X5935121Y-3676360D02*
G01X5784880Y-3676360D01*
G01X5950361Y-3298880D02*
G03X5935121Y-3283640I-15240J0D01*
G01X5784880Y-3283640D02*
G03X5769640Y-3298880I0J-15240D01*
G01X5950361Y-3661120D02*
G02X5935121Y-3676360I-15240J0D01*
G01X5784880Y-3676360D02*
G02X5769640Y-3661120I0J15240D01*
G54D12*
G01X5002775Y-2780000D02*
G01X5104375Y-2780000D01*
G01X5053575Y-2703800D02*
G01X5053575Y-2856200D01*
G36*
G01X5815575Y-2424400D02*
G01X5942575Y-2627600D01*
G01X5967975Y-2729200D01*
G01X5942575Y-2881600D01*
G01X5891775Y-3034000D01*
G01X5815575Y-3135600D01*
G01X5815575Y-2424400D01*
G37*
G01X1740001Y-2659669D02*
G01X1615541Y-2659669D01*
G01X1677771Y-2726979D02*
G01X1677771Y-2592359D01*
G01X1960255Y-2379619D02*
G03X1967367Y-2379619I3556J-399985D01*
G36*
G01X2235001Y-3079668D02*
G01X2235001Y-2479669D01*
G02X2235001Y-3079668I-314998J-299999D01*
G37*
G54D13*
G01X4037567Y-4838579D02*
G01X4322809Y-4838579D01*
G01X4037567Y-5009806D02*
G01X4037567Y-4490569D01*
G01X4297749Y-4490858D02*
G01X4321671Y-4490190D01*
G01X4037567Y-4490569D02*
G01X4061488Y-4489901D01*
G01X4322809Y-5009806D02*
G01X4322809Y-4490569D01*
G36*
G01X4029947Y-5002188D02*
G01X4070607Y-5002320D01*
G01X4070155Y-5048274D01*
G01X4029947Y-5047908D01*
G01X4029947Y-5002188D01*
G37*
G36*
G01X4289784Y-5001365D02*
G01X4330444Y-5001497D01*
G01X4329992Y-5047451D01*
G01X4289784Y-5047085D01*
G01X4289784Y-5001365D01*
G37*
G01X3587567Y-4838579D02*
G01X3872809Y-4838579D01*
G01X3587567Y-5009806D02*
G01X3587567Y-4490569D01*
G01X3847749Y-4490858D02*
G01X3871671Y-4490190D01*
G01X3587567Y-4490569D02*
G01X3611488Y-4489901D01*
G01X3872809Y-5009806D02*
G01X3872809Y-4490569D01*
G36*
G01X3579947Y-5002188D02*
G01X3620607Y-5002320D01*
G01X3620155Y-5048274D01*
G01X3579947Y-5047908D01*
G01X3579947Y-5002188D01*
G37*
G36*
G01X3839784Y-5001365D02*
G01X3880444Y-5001497D01*
G01X3879992Y-5047451D01*
G01X3839784Y-5047085D01*
G01X3839784Y-5001365D01*
G37*
G01X2322378Y-3451676D02*
G01X2497623Y-3451676D01*
G01X2502624Y-3517622D02*
G01X2502624Y-3242378D01*
G01X2317377Y-3517622D02*
G01X2317377Y-3242378D01*
G01X2317377Y-3242378D02*
G01X2336681Y-3242378D01*
G01X2502624Y-3242378D02*
G01X2483320Y-3242378D01*
G36*
G01X2309760Y-3510000D02*
G01X2341759Y-3510000D01*
G01X2341759Y-3540480D01*
G01X2309760Y-3540480D01*
G01X2309760Y-3510000D01*
G37*
G36*
G01X2510242Y-3510000D02*
G01X2510242Y-3540480D01*
G01X2478243Y-3540480D01*
G01X2478243Y-3510000D01*
G01X2510242Y-3510000D01*
G37*
G54D12*
G01X1805101Y-9803113D02*
G01X1805101Y-10789700D01*
G01X4014901Y-8956887D02*
G01X4014901Y-7970300D01*
G01X4014901Y-7970300D02*
G01X1805101Y-7970300D01*
G01X1805101Y-7970300D02*
G01X1805101Y-8956887D01*
G01X1805101Y-10789700D02*
G01X4014901Y-10789700D01*
G01X4014901Y-10789700D02*
G01X4014901Y-9803113D01*
G01X7514901Y-8956887D02*
G01X7514901Y-7970300D01*
G01X5305101Y-9803113D02*
G01X5305101Y-10789700D01*
G01X5305101Y-10789700D02*
G01X7514901Y-10789700D01*
G01X7514901Y-10789700D02*
G01X7514901Y-9803113D01*
G01X7514901Y-7970300D02*
G01X5305101Y-7970300D01*
G01X5305101Y-7970300D02*
G01X5305101Y-8956887D01*
G01X3545001Y-2165000D02*
G01X4775001Y-2165000D01*
G01X3545001Y-3395000D02*
G01X4775001Y-3395000D01*
G01X3545001Y-2165000D02*
G01X3545001Y-2486887D01*
G01X3545001Y-3073113D02*
G01X3545001Y-3395000D01*
G01X4775001Y-3395000D02*
G01X4775001Y-3073113D01*
G01X4775001Y-2486887D02*
G01X4775001Y-2165000D01*
G54D14*
G01X2066591Y-11219904D02*
G01X3696768Y-11219904D01*
G01X2066591Y-11219904D02*
G01X2066591Y-11749999D01*
G01X3696768Y-11749999D01*
G01X3696768Y-11219904D01*
G01X2066591Y-11699961D02*
G01X3696768Y-11699961D01*
G54D15*
G01X3738678Y-11503000D02*
G03X3738551Y-11478108I-127J12445D01*
G03X3738424Y-11503000I0J-12446D01*
G54D14*
G01X5566591Y-11219904D02*
G01X7196768Y-11219904D01*
G01X5566591Y-11219904D02*
G01X5566591Y-11749999D01*
G01X7196768Y-11749999D01*
G01X7196768Y-11219904D01*
G01X5566591Y-11699961D02*
G01X7196768Y-11699961D01*
G54D15*
G01X7238678Y-11503000D02*
G03X7238551Y-11478108I-127J12445D01*
G03X7238424Y-11503000I0J-12446D01*
G54D13*
G01X4535067Y-5642278D02*
G01X4399076Y-5642278D01*
G01X4399076Y-5642278D02*
G01X4399076Y-5858096D01*
G01X4399076Y-5858096D02*
G01X4535067Y-5858096D01*
G01X4725308Y-5642278D02*
G01X4861300Y-5642278D01*
G01X4861300Y-5642278D02*
G01X4861300Y-5858096D01*
G01X4861300Y-5858096D02*
G01X4725308Y-5858096D01*
G01X3888097Y-5455067D02*
G01X3888097Y-5319075D01*
G01X3888097Y-5319075D02*
G01X3672278Y-5319075D01*
G01X3672278Y-5319075D02*
G01X3672278Y-5455067D01*
G01X3888097Y-5645307D02*
G01X3888097Y-5781299D01*
G01X3888097Y-5781299D02*
G01X3672278Y-5781299D01*
G01X3672278Y-5781299D02*
G01X3672278Y-5645307D01*
G01X4535067Y-5242278D02*
G01X4399076Y-5242278D01*
G01X4399076Y-5242278D02*
G01X4399076Y-5458096D01*
G01X4399076Y-5458096D02*
G01X4535067Y-5458096D01*
G01X4725308Y-5242278D02*
G01X4861300Y-5242278D01*
G01X4861300Y-5242278D02*
G01X4861300Y-5458096D01*
G01X4861300Y-5458096D02*
G01X4725308Y-5458096D01*
G01X4072278Y-5645307D02*
G01X4072278Y-5781299D01*
G01X4072278Y-5781299D02*
G01X4288097Y-5781299D01*
G01X4288097Y-5781299D02*
G01X4288097Y-5645307D01*
G01X4072278Y-5455067D02*
G01X4072278Y-5319075D01*
G01X4072278Y-5319075D02*
G01X4288097Y-5319075D01*
G01X4288097Y-5319075D02*
G01X4288097Y-5455067D01*
G01X4022278Y-4045307D02*
G01X4022278Y-4181299D01*
G01X4022278Y-4181299D02*
G01X4238097Y-4181299D01*
G01X4238097Y-4181299D02*
G01X4238097Y-4045307D01*
G01X4022278Y-3855066D02*
G01X4022278Y-3719075D01*
G01X4022278Y-3719075D02*
G01X4238097Y-3719075D01*
G01X4238097Y-3719075D02*
G01X4238097Y-3855066D01*
G01X3672278Y-4045307D02*
G01X3672278Y-4181299D01*
G01X3672278Y-4181299D02*
G01X3888097Y-4181299D01*
G01X3888097Y-4181299D02*
G01X3888097Y-4045307D01*
G01X3672278Y-3855066D02*
G01X3672278Y-3719075D01*
G01X3672278Y-3719075D02*
G01X3888097Y-3719075D01*
G01X3888097Y-3719075D02*
G01X3888097Y-3855066D01*
G01X4725308Y-4258096D02*
G01X4861300Y-4258096D01*
G01X4861300Y-4258096D02*
G01X4861300Y-4042278D01*
G01X4861300Y-4042278D02*
G01X4725308Y-4042278D01*
G01X4535067Y-4258096D02*
G01X4399076Y-4258096D01*
G01X4399076Y-4258096D02*
G01X4399076Y-4042278D01*
G01X4399076Y-4042278D02*
G01X4535067Y-4042278D01*
G01X4535067Y-3642278D02*
G01X4399076Y-3642278D01*
G01X4399076Y-3642278D02*
G01X4399076Y-3858096D01*
G01X4399076Y-3858096D02*
G01X4535067Y-3858096D01*
G01X4725308Y-3642278D02*
G01X4861300Y-3642278D01*
G01X4861300Y-3642278D02*
G01X4861300Y-3858096D01*
G01X4861300Y-3858096D02*
G01X4725308Y-3858096D01*
G01X6052092Y-3575121D02*
G01X6052092Y-3711112D01*
G01X6052092Y-3711112D02*
G01X6267910Y-3711112D01*
G01X6267910Y-3711112D02*
G01X6267910Y-3575121D01*
G01X6052092Y-3384880D02*
G01X6052092Y-3248888D01*
G01X6052092Y-3248888D02*
G01X6267910Y-3248888D01*
G01X6267910Y-3248888D02*
G01X6267910Y-3384880D01*
G01X5226061Y-3437379D02*
G01X5226061Y-3341491D01*
G01X5226061Y-3341491D02*
G01X5093941Y-3341491D01*
G01X5093941Y-3341491D02*
G01X5093941Y-3437379D01*
G01X5226061Y-3522621D02*
G01X5226061Y-3618509D01*
G01X5226061Y-3618509D02*
G01X5093941Y-3618509D01*
G01X5093941Y-3618509D02*
G01X5093941Y-3522621D01*
G01X5293941Y-3522621D02*
G01X5293941Y-3618509D01*
G01X5293941Y-3618509D02*
G01X5426061Y-3618509D01*
G01X5426061Y-3618509D02*
G01X5426061Y-3522621D01*
G01X5293941Y-3437379D02*
G01X5293941Y-3341491D01*
G01X5293941Y-3341491D02*
G01X5426061Y-3341491D01*
G01X5426061Y-3341491D02*
G01X5426061Y-3437379D01*
G54D16*
G01X4932809Y-4598046D02*
G01X4427567Y-4598046D01*
G01X4932809Y-4902328D02*
G01X4427567Y-4902328D01*
G01X4932809Y-4706649D02*
G01X4932809Y-4598046D01*
G01X4932809Y-4795077D02*
G01X4932809Y-4902328D01*
G01X4886944Y-4598046D02*
G01X4932809Y-4598046D01*
G01X4759944Y-4598046D02*
G01X4854432Y-4598046D01*
G01X4632944Y-4598046D02*
G01X4727432Y-4598046D01*
G01X4505944Y-4598046D02*
G01X4600432Y-4598046D01*
G01X4427567Y-4598046D02*
G01X4473432Y-4598046D01*
G01X4427567Y-4902328D02*
G01X4427567Y-4598046D01*
G01X4886944Y-4902328D02*
G01X4932809Y-4902328D01*
G01X4759944Y-4902328D02*
G01X4854432Y-4902328D01*
G01X4632944Y-4902328D02*
G01X4727432Y-4902328D01*
G01X4505944Y-4902328D02*
G01X4600432Y-4902328D01*
G01X4427567Y-4902328D02*
G01X4473432Y-4902328D01*
G54D18*
G01X4855676Y-4648587D02*
G02X4885699Y-4648587I15011J0D01*
G02X4855676Y-4648587I-15011J0D01*
G54D16*
G01X4932809Y-4706649D02*
G03X4932809Y-4795077I0J-44214D01*
G54D14*
G01X3188093Y-2976266D02*
G01X3188093Y-3046116D01*
G01X3188093Y-3046116D02*
G01X3237877Y-3046116D01*
G01X3237877Y-3046116D02*
G01X3237877Y-2976266D01*
G01X3061093Y-2976266D02*
G01X3061093Y-3046116D01*
G01X3061093Y-3046116D02*
G01X3110877Y-3046116D01*
G01X3110877Y-3046116D02*
G01X3110877Y-2976266D01*
G01X2934093Y-2976266D02*
G01X2934093Y-3046116D01*
G01X2934093Y-3046116D02*
G01X2983877Y-3046116D01*
G01X2983877Y-3046116D02*
G01X2983877Y-2976266D01*
G01X2807093Y-2976266D02*
G01X2807093Y-3046116D01*
G01X2807093Y-3046116D02*
G01X2856877Y-3046116D01*
G01X2856877Y-3046116D02*
G01X2856877Y-2976266D01*
G01X2729877Y-2976266D02*
G01X2729877Y-3046116D01*
G01X2729877Y-3046116D02*
G01X2680093Y-3046116D01*
G01X2680093Y-3046116D02*
G01X2680093Y-2976266D01*
G01X2619895Y-2366158D02*
G01X2609989Y-2366158D01*
G01X2609989Y-2366158D02*
G01X2609989Y-2966106D01*
G01X2609989Y-2966106D02*
G01X3310013Y-2966106D01*
G01X3310013Y-2966106D02*
G01X3310013Y-2366158D01*
G01X3310013Y-2366158D02*
G01X3300107Y-2366158D01*
G54D19*
G01X2589923Y-3046116D02*
G03X2630054Y-3045989I20066J127D01*
G03X2589923Y-3045862I-20066J0D01*
G54D12*
G01X7464242Y-5928585D02*
G01X7464242Y-5608692D01*
G01X7464242Y-6944585D02*
G01X7464242Y-6304800D01*
G01X7464242Y-7640692D02*
G01X7464242Y-7320800D01*
G01X6363965Y-5947775D02*
G01X6363965Y-5608692D01*
G01X6363965Y-6963775D02*
G01X6363965Y-6285610D01*
G01X6363965Y-7640692D02*
G01X6363965Y-7301610D01*
G01X8091597Y-6260200D02*
G01X7796700Y-6260200D01*
G01X7796700Y-6260200D02*
G01X7754793Y-6218292D01*
G01X7754793Y-6218292D02*
G01X7754793Y-6027792D01*
G01X7754793Y-6027792D02*
G01X7805339Y-5977246D01*
G01X7805339Y-5977246D02*
G01X8091597Y-5977246D01*
G01X8091597Y-7276202D02*
G01X7796703Y-7276202D01*
G01X7796703Y-7276202D02*
G01X7754793Y-7234292D01*
G01X7754793Y-7234292D02*
G01X7754793Y-7043792D01*
G01X7754793Y-7043792D02*
G01X7805339Y-6993246D01*
G01X7805339Y-6993246D02*
G01X8091597Y-6993246D01*
G01X6226693Y-7640692D02*
G01X6226693Y-5608692D01*
G01X6226693Y-7640692D02*
G01X8091696Y-7640692D01*
G01X6226693Y-5608692D02*
G01X8091696Y-5608692D01*
G01X8091696Y-7640692D02*
G01X8091696Y-5608692D01*
G01X7668789Y-7640692D02*
G01X7668789Y-5608692D01*
G36*
G01X7907193Y-7208892D02*
G01X7792893Y-7132692D01*
G01X7907193Y-7056492D01*
G01X7907193Y-7208892D01*
G37*
G36*
G01X7907193Y-7145392D02*
G01X7907193Y-7119992D01*
G01X8046893Y-7119992D01*
G01X8046893Y-7145392D01*
G01X7907193Y-7145392D01*
G37*
G36*
G01X7907193Y-6129392D02*
G01X7907193Y-6103992D01*
G01X8046893Y-6103992D01*
G01X8046893Y-6129392D01*
G01X7907193Y-6129392D01*
G37*
G36*
G01X7907193Y-6192892D02*
G01X7792893Y-6116692D01*
G01X7907193Y-6040492D01*
G01X7907193Y-6192892D01*
G37*
G01X2050451Y-5526107D02*
G01X2050451Y-5846000D01*
G01X2050451Y-4510107D02*
G01X2050451Y-5149893D01*
G01X2050451Y-3814000D02*
G01X2050451Y-4133893D01*
G01X3150729Y-5506918D02*
G01X3150729Y-5846000D01*
G01X3150729Y-4490918D02*
G01X3150729Y-5169082D01*
G01X3150729Y-3814000D02*
G01X3150729Y-4153082D01*
G01X1423097Y-5194493D02*
G01X1717993Y-5194493D01*
G01X1717993Y-5194493D02*
G01X1759901Y-5236400D01*
G01X1759901Y-5236400D02*
G01X1759901Y-5426900D01*
G01X1759901Y-5426900D02*
G01X1709355Y-5477446D01*
G01X1709355Y-5477446D02*
G01X1423097Y-5477446D01*
G01X1423097Y-4178490D02*
G01X1717991Y-4178490D01*
G01X1717991Y-4178490D02*
G01X1759901Y-4220400D01*
G01X1759901Y-4220400D02*
G01X1759901Y-4410900D01*
G01X1759901Y-4410900D02*
G01X1709355Y-4461446D01*
G01X1709355Y-4461446D02*
G01X1423097Y-4461446D01*
G01X3288000Y-3814000D02*
G01X3288000Y-5846000D01*
G01X3288000Y-3814000D02*
G01X1422998Y-3814000D01*
G01X3288000Y-5846000D02*
G01X1422998Y-5846000D01*
G01X1422998Y-3814000D02*
G01X1422998Y-5846000D01*
G01X1845905Y-3814000D02*
G01X1845905Y-5846000D01*
G36*
G01X1607501Y-4245800D02*
G01X1721801Y-4322000D01*
G01X1607501Y-4398200D01*
G01X1607501Y-4245800D01*
G37*
G36*
G01X1607501Y-4309300D02*
G01X1607501Y-4334700D01*
G01X1467801Y-4334700D01*
G01X1467801Y-4309300D01*
G01X1607501Y-4309300D01*
G37*
G36*
G01X1607501Y-5325300D02*
G01X1607501Y-5350700D01*
G01X1467801Y-5350700D01*
G01X1467801Y-5325300D01*
G01X1607501Y-5325300D01*
G37*
G36*
G01X1607501Y-5261800D02*
G01X1721801Y-5338000D01*
G01X1607501Y-5414200D01*
G01X1607501Y-5261800D01*
G37*
G01X1445004Y-7729999D02*
G01X4199997Y-7729999D01*
G01X4199997Y-7729999D02*
G01X4199997Y-6080002D01*
G01X4199997Y-6080002D02*
G01X1440003Y-6080002D01*
G01X1440003Y-6080002D02*
G01X1440003Y-7729999D01*
G01X7830000Y-2929999D02*
G01X7020110Y-2929999D01*
G01X7020110Y-2929999D02*
G01X7020110Y-2893517D01*
G01X7830116Y-2330026D02*
G01X7020110Y-2330026D01*
G01X7020110Y-2330026D02*
G01X7020110Y-2909908D01*
G01X7830000Y-2330001D02*
G01X7830000Y-2929999D01*
G01X6660002Y-2100001D02*
G01X8169999Y-2100001D01*
G01X8169999Y-2100001D02*
G01X8169999Y-3149999D01*
G01X8169999Y-3149999D02*
G01X6660002Y-3149999D01*
G01X6660002Y-3149999D02*
G01X6660002Y-2100001D01*
G36*
G01X7600000Y-2600000D02*
G01X7780000Y-2600000D01*
G01X7780000Y-2660000D01*
G01X7600000Y-2660000D01*
G01X7600000Y-2600000D01*
G37*

G04 Rect Start*
G54D20*
G01X5108437Y-5233455D02*
G01X5108437Y-4533455D01*
G01X8258437Y-4533455D01*
G01X8258437Y-5233455D01*
G01X5108437Y-5233455D01*
G04 Rect End*

G04 Circle Start*
G54D12*
G01X4959989Y-2780000D02*
G03X5959987Y-2780000I499999J0D01*
G03X4959989Y-2780000I-499999J0D01*
G01X7054553Y-2630000D02*
G03X7225444Y-2630000I85446J0D01*
G03X7054553Y-2630000I-85446J0D01*
G04 Circle End*

M02*

