G04 Layer: TopLayer*
G04 EasyEDA Pro v3.2.148, 2026-08-19 12:09:32*
G04 Gerber Generator version 0.3*
G04 Scale: 100 percent, Rotated: No, Reflected: No*
G04 Dimensions in millimeters*
G04 Leading zeros omitted, absolute positions, 4 integers and 5 decimals*
G04 Generated by one-click*
G04 Object Configs: Pad,Via,Track,Text,Image,Dimension,BoardOutline,BoardCutout,CopperFilled,SolidRegion,FPCStiffener,Line,PlaneZone,ComponentProperty,ComponentSilkscreen,TearDrop*
G04 Layer Configs: 1,2,3,4,5,6,7,8,9,10,11,13,14,56*
G04 Copper Areas: 0*
%FSLAX45Y45*%
%MOMM*%
%ADD10C,1.8*%
%ADD11R,1.35001X1.41*%
%ADD12C,1.6*%
%ADD13R,2.0X2.0*%
%ADD14R,1.2X1.2*%
%ADD15R,8.49998X7.99998*%
%ADD16R,2.9006X5.39999*%
%ADD17R,2.89999X5.39999*%
%ADD18R,2.79999X2.0*%
%ADD19O,2.79999X2.0*%
%ADD20R,1.20752X1.70101*%
%ADD21R,1.70101X1.20752*%
%ADD22R,0.86401X0.80648*%
%ADD23O,0.58801X1.8*%
%ADD24R,6.2103X6.2103*%
%ADD25R,0.8255X2.2*%
%ADD26C,3.29999*%
%ADD27O,2.49999X3.19999*%
%ADD28O,4.19999X1.5*%
%ADD29O,1.6X4.99999*%
%ADD30C,0.61*%
%ADD31C,0.508*%
%ADD32C,8.89*%
G75*


G04 PolygonModel Start*
G36*
G01X1422998Y-5846000D02*
G01X1422998Y-4830000D01*
G01X3560001Y-4830000D01*
G01X3560001Y-5767819D01*
G01X3867314Y-6075132D01*
G01X3867314Y-6080002D01*
G01X4199997Y-6080002D01*
G01X4199997Y-7729999D01*
G01X3033548Y-7729999D01*
G01X3033548Y-6524306D01*
G01X2355243Y-5846000D01*
G01X1422998Y-5846000D01*
G37*
G36*
G01X3673677Y-11240986D02*
G02X3679672Y-11240986I2997J0D01*
G02X3673677Y-11240986I-2997J0D01*
G37*
G36*
G01X7173677Y-11240986D02*
G02X7179672Y-11240986I2997J0D01*
G02X7173677Y-11240986I-2997J0D01*
G37*
G36*
G01X4922199Y-4450188D02*
G02X4928193Y-4450188I2997J0D01*
G02X4922199Y-4450188I-2997J0D01*
G37*

G04 Pad Start*
G54D10*
G01X5554693Y-5860848D03*
G01X5554693Y-7384848D03*
G54D11*
G01X5860001Y-3380000D03*
G01X5860001Y-3580000D03*
G54D12*
G01X5710000Y-2780000D03*
G01X5210001Y-2780000D03*
G01X2135007Y-2779669D03*
G01X1784995Y-2779669D03*
G54D13*
G01X4180188Y-4530198D03*
G01X4180188Y-4970176D03*
G01X3730188Y-4530198D03*
G01X3730188Y-4970176D03*
G54D14*
G01X2410001Y-3216500D03*
G01X2410001Y-3543500D03*
G54D15*
G01X2060002Y-9380000D03*
G01X3759999Y-9380000D03*
G01X7259999Y-9380000D03*
G01X5560003Y-9380000D03*
G54D17*
G01X3634996Y-2780000D03*
G01X4685006Y-2780000D03*
G54D18*
G01X3437686Y-11480000D03*
G54D19*
G01X2881680Y-11480000D03*
G01X2325674Y-11480000D03*
G54D18*
G01X6937686Y-11480000D03*
G54D19*
G01X6381680Y-11480000D03*
G01X5825674Y-11480000D03*
G54D20*
G01X4482309Y-5750187D03*
G01X4778066Y-5750187D03*
G54D21*
G01X3780188Y-5402308D03*
G01X3780188Y-5698066D03*
G54D20*
G01X4482309Y-5350187D03*
G01X4778066Y-5350187D03*
G54D21*
G01X4180188Y-5698066D03*
G01X4180188Y-5402308D03*
G01X4130188Y-4098066D03*
G01X4130188Y-3802308D03*
G01X3780188Y-4098066D03*
G01X3780188Y-3802308D03*
G54D20*
G01X4778066Y-4150187D03*
G01X4482309Y-4150187D03*
G01X4482309Y-3750187D03*
G01X4778066Y-3750187D03*
G54D21*
G01X6160001Y-3627879D03*
G01X6160001Y-3332121D03*
G54D22*
G01X5160001Y-3404664D03*
G01X5160001Y-3555337D03*
G01X5360001Y-3555337D03*
G01X5360001Y-3404664D03*
G54D23*
G01X4489688Y-5010181D03*
G01X4616688Y-5010181D03*
G01X4743688Y-5010181D03*
G01X4870688Y-5010181D03*
G01X4489688Y-4490193D03*
G01X4616688Y-4490193D03*
G01X4743688Y-4490193D03*
G01X4870688Y-4490193D03*
G54D24*
G01X2960001Y-2525670D03*
G54D25*
G01X2706001Y-3234330D03*
G01X2833001Y-3234330D03*
G01X2960001Y-3234330D03*
G01X3087001Y-3234330D03*
G01X3214001Y-3234330D03*
G54D26*
G01X6446693Y-7132692D03*
G01X6446693Y-6116692D03*
G01X7462693Y-6116692D03*
G01X7462693Y-7132692D03*
G01X3068001Y-4322000D03*
G01X3068001Y-5338000D03*
G01X2052001Y-5338000D03*
G01X2052001Y-4322000D03*
G54D10*
G01X1880002Y-7479999D03*
G01X1880002Y-6280001D03*
G54D27*
G01X1660002Y-6880000D03*
G54D28*
G01X3259999Y-7479999D03*
G54D29*
G01X6910001Y-2630000D03*
G01X7410000Y-2630000D03*
G04 Pad End*

G04 Via Start*
G54D30*
G01X4911043Y-5750187D03*
G01X4610001Y-4680000D03*
G01X4870688Y-4850674D03*
G01X5460001Y-3230000D03*
G01X2760001Y-2330000D03*
G01X3160001Y-2330000D03*
G01X3160001Y-2730000D03*
G01X2760001Y-2730000D03*
G01X2410001Y-3317866D03*
G01X3310001Y-3230000D03*
G01X4685504Y-7934584D03*
G01X4230985Y-5596469D03*
G01X4688184Y-6307668D03*
G01X6770980Y-9914460D03*
G01X3878296Y-4997250D03*
G04 Via End*

G04 Track Start*
G54D31*
G01X2833001Y-3234330D02*
G01X2878126Y-3189205D01*
G01X2878126Y-3107513D01*
G01X2901909Y-3083730D01*
G01X3431265Y-3083730D01*
G01X3734995Y-2780000D01*
G01X5360001Y-3555337D02*
G01X5160001Y-3555337D01*
G01X5210001Y-2780000D02*
G01X4785006Y-2780000D01*
G01X5160001Y-3404664D02*
G01X5210001Y-3354663D01*
G01X5210001Y-2780000D01*
G01X5860001Y-3380000D02*
G01X5618780Y-3138780D01*
G01X5425885Y-3138780D01*
G01X5210001Y-3354663D01*
G01X5360001Y-3555337D02*
G01X5835338Y-3555337D01*
G01X5860001Y-3580000D01*
G01X5160001Y-3555337D02*
G01X4989594Y-3384930D01*
G01X3137801Y-3384930D01*
G01X3087001Y-3334130D01*
G01X3087001Y-3234330D01*
G01X6160001Y-3332121D02*
G01X5907880Y-3332121D01*
G01X5860001Y-3380000D01*
G01X4778066Y-3750187D02*
G01X4778066Y-4150187D01*
G01X4478066Y-4150187D02*
G01X4482309Y-4150187D01*
G01X3780188Y-3802308D02*
G01X4130188Y-3802308D01*
G01X4478066Y-4150187D01*
G01X4482309Y-5750187D02*
G01X4482309Y-5350187D01*
G01X4870688Y-4390687D02*
G01X4870688Y-4490193D01*
G01X4482309Y-3750187D02*
G01X4482309Y-3902308D01*
G01X4630188Y-4050187D01*
G01X4630188Y-4250187D01*
G01X4680188Y-4300187D01*
G01X4780188Y-4300187D01*
G01X4870688Y-4390687D01*
G01X4482309Y-4150187D02*
G01X4482309Y-4252308D01*
G01X4616688Y-4386687D02*
G01X4616688Y-4490193D01*
G01X4482309Y-4252308D02*
G01X4616688Y-4386687D01*
G01X4130188Y-4098066D02*
G01X4130188Y-4480198D01*
G01X4180188Y-4530198D01*
G01X3780188Y-4098066D02*
G01X3780188Y-4480198D01*
G01X3730188Y-4530198D01*
G01X4743688Y-5010181D02*
G01X4743688Y-5315808D01*
G01X4778066Y-5350187D01*
G01X2410001Y-3543500D02*
G01X2646501Y-3543500D01*
G01X2833001Y-3357000D02*
G01X2833001Y-3234330D01*
G01X2646501Y-3543500D02*
G01X2833001Y-3357000D01*
G01X6160001Y-3627879D02*
G01X6037693Y-3750187D01*
G01X4778066Y-3750187D01*
G01X6274080Y-3815921D02*
G01X5224080Y-3815921D01*
G01X5010001Y-4030000D01*
G01X4899683Y-4620793D02*
G01X4869208Y-4620793D01*
G01X4610001Y-4880000D01*
G01X5010001Y-4030000D02*
G01X5010001Y-4510475D01*
G01X4899683Y-4620793D01*
G01X4610001Y-4880000D02*
G01X4610001Y-5003495D01*
G01X4616688Y-5010181D01*
G01X6160001Y-3332121D02*
G01X6360001Y-3532121D01*
G01X6360001Y-3730000D01*
G01X6274080Y-3815921D01*
G54D32*
G01X3759999Y-9480000D02*
G01X2881680Y-10358320D01*
G01X2881680Y-11184391D01*
G01X6446693Y-7132692D02*
G01X5806849Y-7132692D01*
G01X5554693Y-7384848D01*
G54D31*
G01X1784995Y-2779669D02*
G01X2085326Y-3080000D01*
G01X2551671Y-3080000D02*
G01X2706001Y-3234330D01*
G01X2085326Y-3080000D02*
G01X2551671Y-3080000D01*
G01X1784995Y-2779669D02*
G01X1784995Y-5070994D01*
G01X2052001Y-5338000D01*
G54D32*
G01X6381680Y-11008321D02*
G01X6381680Y-11184391D01*
G01X7462693Y-9927308D02*
G01X6381680Y-11008321D01*
G01X7462693Y-7132692D02*
G01X7462693Y-9277307D01*
G01X7462693Y-9927308D01*
G01X7259999Y-9480000D02*
G01X7462693Y-9277307D01*
G01X6446693Y-7132692D02*
G01X7462693Y-7132692D01*
G54D31*
G01X4489688Y-5010181D02*
G01X4241028Y-4761522D01*
G01X4110001Y-4761522D01*
G01X3955155Y-4916368D01*
G01X3955155Y-5177276D01*
G01X4180188Y-5402308D01*
G01X4489688Y-4490193D02*
G01X4546687Y-4547192D01*
G01X4546687Y-4579787D01*
G01X4587692Y-4620793D01*
G01X4645683Y-4620793D01*
G01X4686688Y-4579787D01*
G01X4686688Y-4547192D01*
G01X4743688Y-4490193D01*
G01X3654537Y-5620873D02*
G01X3654537Y-5775259D01*
G01X4282055Y-5799042D02*
G01X4305838Y-5775259D01*
G01X4305838Y-5658682D01*
G01X4371001Y-5593520D01*
G01X4405116Y-5224536D02*
G01X4559502Y-5224536D01*
G01X4583285Y-5248319D01*
G01X3780188Y-5402308D02*
G01X3780188Y-5495222D01*
G01X3654537Y-5620873D01*
G01X3654537Y-5775259D02*
G01X3678320Y-5799042D01*
G01X4282055Y-5799042D01*
G01X4583285Y-5248319D02*
G01X4583285Y-5555405D01*
G01X4371001Y-5258651D02*
G01X4405116Y-5224536D01*
G01X4371001Y-5593520D02*
G01X4371001Y-5258651D01*
G01X4911043Y-5750187D02*
G01X4778066Y-5750187D01*
G01X4583285Y-5555405D02*
G01X4778066Y-5750187D01*
G01X4610001Y-4680000D02*
G01X4610001Y-4643101D01*
G01X4587692Y-4620793D01*
G01X4870688Y-4850674D02*
G01X4870688Y-5010181D01*
G01X5460001Y-3230000D02*
G01X5460001Y-3304664D01*
G01X5360001Y-3404664D01*
G01X2410001Y-3216500D02*
G01X2410001Y-3317866D01*
G01X3214001Y-3234330D02*
G01X3305671Y-3234330D01*
G01X3310001Y-3230000D01*
G01X2960001Y-3234330D02*
G01X2960001Y-3379870D01*
G01X2284301Y-3593300D02*
G01X2284301Y-3443566D01*
G01X2410001Y-3317866D01*
G01X2960001Y-3379870D02*
G01X2660131Y-3680000D01*
G01X2371001Y-3680000D01*
G01X2335101Y-3644100D01*
G01X2333184Y-3644100D01*
G01X2309401Y-3620317D01*
G01X2309401Y-3618400D01*
G01X2284301Y-3593300D01*
G54D32*
G01X4460003Y-8380000D02*
G01X5560003Y-9480000D01*
G01X3160000Y-8380000D02*
G01X4460003Y-8380000D01*
G01X2510001Y-8930000D02*
G01X2510001Y-7130000D01*
G01X2260001Y-6880000D01*
G01X1910001Y-6880000D01*
G01X2060002Y-9380000D02*
G01X3160000Y-8380000D01*
G54D31*
G01X4482304Y-5750189D02*
G01X4482304Y-7731385D01*
G01X4685504Y-7934584D01*
G01X4180185Y-5647269D02*
G01X4230985Y-5596469D01*
G01X4688184Y-6307668D02*
G01X4688184Y-7622065D01*
G01X6770980Y-9704861D01*
G01X6770980Y-9914460D01*
G01X5554692Y-7384846D02*
G01X5554692Y-6267248D01*
G01X4792694Y-5505249D01*
G01X4715254Y-5505249D01*
G01X4664454Y-5454449D01*
G01X4664454Y-5200450D01*
G01X4613654Y-5149650D01*
G01X4359655Y-5149650D01*
G01X4180185Y-4970180D01*
G01X3878296Y-4997250D02*
G01X3757256Y-4997250D01*
G01X3730186Y-4970180D01*
G01X6160001Y-3332124D02*
G01X6160001Y-3330003D01*
G01X6859999Y-2630005D01*
G01X3780188Y-5698066D02*
G01X4180185Y-5698066D01*
G01X4180185Y-5647269D01*
G04 Track End*

M02*

