G04 Layer: TopSolderMaskLayer*
G04 EasyEDA Pro v3.2.148, 2026-08-19 15:09:58*
G04 Gerber Generator version 0.3*
G04 Scale: 100 percent, Rotated: No, Reflected: No*
G04 Dimensions in millimeters*
G04 Leading zeros omitted, absolute positions, 4 integers and 5 decimals*
G04 Generated by one-click*
G04 Object Configs: Pad,Via,Track,Text,Image,Dimension,BoardOutline,BoardCutout,CopperFilled,SolidRegion,FPCStiffener,Line,PlaneZone,ComponentProperty,ComponentSilkscreen,TearDrop*
G04 Layer Configs: 1,2,3,4,5,6,7,8,9,10,11,13,14,56*
G04 Copper Areas: 0*
%FSLAX45Y45*%
%MOMM*%
%AMRoundRect*1,1,$1,$2,$3*1,1,$1,$4,$5*1,1,$1,0-$2,0-$3*1,1,$1,0-$4,0-$5*20,1,$1,$2,$3,$4,$5,0*20,1,$1,$4,$5,0-$2,0-$3,0*20,1,$1,0-$2,0-$3,0-$4,0-$5,0*20,1,$1,0-$4,0-$5,$2,$3,0*4,1,4,$2,$3,$4,$5,0-$2,0-$3,0-$4,0-$5,$2,$3,0*%
%ADD10C,1.9016*%
%ADD11RoundRect,0.1016X-0.675X-0.705X-0.675X0.705*%
%ADD12C,1.7*%
%ADD13C,1.7016*%
%ADD14RoundRect,0.1016X-1.0X-1.0X-1.0X1.0*%
%ADD15RoundRect,0.1016X-0.6X-0.6X-0.6X0.6*%
%ADD16RoundRect,0.1016X-4.24999X-3.99999X-4.24999X3.99999*%
%ADD17RoundRect,0.1037X-1.45X2.69999X1.45X2.69999*%
%ADD18RoundRect,0.1016X-1.45X2.69999X1.45X2.69999*%
%ADD19RoundRect,0.1016X-1.4X-1.0X-1.4X1.0*%
%ADD20O,2.90159X2.1016*%
%ADD21RoundRect,0.1016X-0.85051X-0.60376X-0.85051X0.60376*%
%ADD22RoundRect,0.1016X-0.432X-0.40324X-0.432X0.40324*%
%ADD23O,0.68961X1.9016*%
%ADD24RoundRect,0.1016X-3.10515X3.10515X3.10515X3.10515*%
%ADD25RoundRect,0.1016X-0.41275X1.1X0.41275X1.1*%
%ADD26C,3.40159*%
%ADD27C,1.9*%
%ADD28O,2.6016X3.30159*%
%ADD29O,4.30159X1.6016*%
%ADD30O,1.7016X5.10159*%
%ADD31C,3.10002*%
%ADD32RoundRect,0.1016X-0.60376X0.85051X0.60376X0.85051*%
G75*


G04 Pad Start*
G54D10*
G01X5554693Y-5860848D03*
G01X5554693Y-7384848D03*
G54D11*
G01X5860001Y-3380000D03*
G01X5860001Y-3580000D03*
G54D12*
G01X5710000Y-2780000D03*
G01X5210001Y-2780000D03*
G54D13*
G01X2135007Y-2779669D03*
G01X1784995Y-2779669D03*
G54D14*
G01X4180188Y-4530198D03*
G01X4180188Y-4970176D03*
G01X3730188Y-4530198D03*
G01X3730188Y-4970176D03*
G54D15*
G01X2410001Y-3216500D03*
G01X2410001Y-3543500D03*
G54D16*
G01X2060002Y-9380000D03*
G01X3759999Y-9380000D03*
G01X7259999Y-9380000D03*
G01X5560003Y-9380000D03*
G54D18*
G01X3634996Y-2780000D03*
G01X4685006Y-2780000D03*
G54D19*
G01X3416007Y-11355000D03*
G54D20*
G01X2860001Y-11355000D03*
G01X2303995Y-11355000D03*
G54D19*
G01X7116007Y-11355000D03*
G54D20*
G01X6560001Y-11355000D03*
G01X6003995Y-11355000D03*
G54D21*
G01X4130188Y-4098066D03*
G01X4130188Y-3802308D03*
G01X3780188Y-4098066D03*
G01X3780188Y-3802308D03*
G54D22*
G01X5160001Y-3404664D03*
G01X5160001Y-3555337D03*
G01X5360001Y-3555337D03*
G01X5360001Y-3404664D03*
G54D23*
G01X4489688Y-5010181D03*
G01X4616688Y-5010181D03*
G01X4743688Y-5010181D03*
G01X4870688Y-5010181D03*
G01X4489688Y-4490193D03*
G01X4616688Y-4490193D03*
G01X4743688Y-4490193D03*
G01X4870688Y-4490193D03*
G54D24*
G01X2960001Y-2525670D03*
G54D25*
G01X2706001Y-3234330D03*
G01X2833001Y-3234330D03*
G01X2960001Y-3234330D03*
G01X3087001Y-3234330D03*
G01X3214001Y-3234330D03*
G54D26*
G01X6446693Y-7132692D03*
G01X6446693Y-6116692D03*
G01X7462693Y-6116692D03*
G01X7462693Y-7132692D03*
G01X3068001Y-4322000D03*
G01X3068001Y-5338000D03*
G01X2052001Y-5338000D03*
G01X2052001Y-4322000D03*
G54D27*
G01X1880002Y-7479999D03*
G01X1880002Y-6280001D03*
G54D28*
G01X1660002Y-6880000D03*
G54D29*
G01X3259999Y-7479999D03*
G54D30*
G01X6910001Y-2630000D03*
G01X7410000Y-2630000D03*
G54D31*
G01X4409993Y-11818651D03*
G01X1309974Y-11831351D03*
G01X8109993Y-11818651D03*
G01X5009973Y-11831351D03*
G54D32*
G01X4482309Y-5750187D03*
G01X4778066Y-5750187D03*
G54D21*
G01X3780188Y-5402308D03*
G01X3780188Y-5698066D03*
G54D32*
G01X4482309Y-5350187D03*
G01X4778066Y-5350187D03*
G54D21*
G01X4180188Y-5698066D03*
G01X4180188Y-5402308D03*
G54D32*
G01X4778066Y-4150187D03*
G01X4482309Y-4150187D03*
G01X4482309Y-3750187D03*
G01X4778066Y-3750187D03*
G54D21*
G01X6160001Y-3627879D03*
G01X6160001Y-3332121D03*
G04 Pad End*

M02*

