G04 Layer: TopPasteMaskLayer*
G04 EasyEDA Pro v3.2.148, 2026-08-19 12:09:32*
G04 Gerber Generator version 0.3*
G04 Scale: 100 percent, Rotated: No, Reflected: No*
G04 Dimensions in millimeters*
G04 Leading zeros omitted, absolute positions, 4 integers and 5 decimals*
G04 Generated by one-click*
G04 Object Configs: Pad,Via,Track,Text,Image,Dimension,BoardOutline,BoardCutout,CopperFilled,SolidRegion,FPCStiffener,Line,PlaneZone,ComponentProperty,ComponentSilkscreen,TearDrop*
G04 Layer Configs: 1,2,3,4,5,6,7,8,9,10,11,13,14,56*
G04 Copper Areas: 0*
%FSLAX45Y45*%
%MOMM*%
%ADD10R,2.0X2.0*%
%ADD11R,1.2X1.2*%
%ADD12R,8.49998X7.99998*%
%ADD13R,2.89999X5.39999*%
%ADD14O,0.58801X1.8*%
%ADD15R,6.2103X6.2103*%
%ADD16R,0.8311X2.2*%
%ADD17R,0.8255X2.2*%
G75*


G04 PolygonModel Start*
G36*
G01X5924001Y-3650498D02*
G01X5796003Y-3650498D01*
G01X5791002Y-3645496D01*
G01X5791002Y-3530495D01*
G01X5796003Y-3525497D01*
G01X5837006Y-3524994D01*
G01X5837006Y-3569995D01*
G01X5882005Y-3569995D01*
G01X5882005Y-3525994D01*
G01X5924001Y-3525497D01*
G01X5929003Y-3530495D01*
G01X5929003Y-3645496D01*
G01X5924001Y-3650498D01*
G37*
G36*
G01X5796001Y-3309503D02*
G01X5923999Y-3309503D01*
G01X5929000Y-3314504D01*
G01X5929000Y-3429505D01*
G01X5923999Y-3434504D01*
G01X5882996Y-3435007D01*
G01X5882996Y-3390005D01*
G01X5837997Y-3390005D01*
G01X5837997Y-3434006D01*
G01X5796001Y-3434504D01*
G01X5790999Y-3429505D01*
G01X5790999Y-3314504D01*
G01X5796001Y-3309503D01*
G37*
G36*
G01X4542687Y-5675138D02*
G01X4542687Y-5711269D01*
G01X4532687Y-5721269D01*
G01X4511631Y-5721269D01*
G01X4501631Y-5731269D01*
G01X4501631Y-5769105D01*
G01X4511631Y-5779105D01*
G01X4532687Y-5779105D01*
G01X4542687Y-5789105D01*
G01X4542687Y-5825237D01*
G01X4532687Y-5835236D01*
G01X4431936Y-5835236D01*
G01X4421936Y-5825237D01*
G01X4421936Y-5675138D01*
G01X4431936Y-5665138D01*
G01X4532687Y-5665138D01*
G01X4542687Y-5675138D01*
G37*
G36*
G01X4717688Y-5675138D02*
G01X4727688Y-5665138D01*
G01X4828440Y-5665138D01*
G01X4838440Y-5675138D01*
G01X4838440Y-5825237D01*
G01X4828440Y-5835236D01*
G01X4727688Y-5835236D01*
G01X4717688Y-5825237D01*
G01X4717688Y-5789105D01*
G01X4727688Y-5779105D01*
G01X4748745Y-5779105D01*
G01X4758745Y-5769105D01*
G01X4758745Y-5731269D01*
G01X4748745Y-5721269D01*
G01X4727688Y-5721269D01*
G01X4717688Y-5711269D01*
G01X4717688Y-5675138D01*
G37*
G36*
G01X3855237Y-5462687D02*
G01X3819105Y-5462687D01*
G01X3809105Y-5452687D01*
G01X3809105Y-5431630D01*
G01X3799105Y-5421630D01*
G01X3761270Y-5421630D01*
G01X3751270Y-5431630D01*
G01X3751270Y-5452687D01*
G01X3741270Y-5462687D01*
G01X3705138Y-5462687D01*
G01X3695138Y-5452687D01*
G01X3695138Y-5351935D01*
G01X3705138Y-5341935D01*
G01X3855237Y-5341935D01*
G01X3865237Y-5351935D01*
G01X3865237Y-5452687D01*
G01X3855237Y-5462687D01*
G37*
G36*
G01X3855237Y-5637687D02*
G01X3865237Y-5647687D01*
G01X3865237Y-5748439D01*
G01X3855237Y-5758439D01*
G01X3705138Y-5758439D01*
G01X3695138Y-5748439D01*
G01X3695138Y-5647687D01*
G01X3705138Y-5637687D01*
G01X3741270Y-5637687D01*
G01X3751270Y-5647687D01*
G01X3751270Y-5668744D01*
G01X3761270Y-5678744D01*
G01X3799105Y-5678744D01*
G01X3809105Y-5668744D01*
G01X3809105Y-5647687D01*
G01X3819105Y-5637687D01*
G01X3855237Y-5637687D01*
G37*
G36*
G01X4542687Y-5275138D02*
G01X4542687Y-5311269D01*
G01X4532687Y-5321269D01*
G01X4511631Y-5321269D01*
G01X4501631Y-5331269D01*
G01X4501631Y-5369105D01*
G01X4511631Y-5379105D01*
G01X4532687Y-5379105D01*
G01X4542687Y-5389105D01*
G01X4542687Y-5425236D01*
G01X4532687Y-5435236D01*
G01X4431936Y-5435236D01*
G01X4421936Y-5425236D01*
G01X4421936Y-5275138D01*
G01X4431936Y-5265138D01*
G01X4532687Y-5265138D01*
G01X4542687Y-5275138D01*
G37*
G36*
G01X4717688Y-5275138D02*
G01X4727688Y-5265138D01*
G01X4828440Y-5265138D01*
G01X4838440Y-5275138D01*
G01X4838440Y-5425236D01*
G01X4828440Y-5435236D01*
G01X4727688Y-5435236D01*
G01X4717688Y-5425236D01*
G01X4717688Y-5389105D01*
G01X4727688Y-5379105D01*
G01X4748745Y-5379105D01*
G01X4758745Y-5369105D01*
G01X4758745Y-5331269D01*
G01X4748745Y-5321269D01*
G01X4727688Y-5321269D01*
G01X4717688Y-5311269D01*
G01X4717688Y-5275138D01*
G37*
G36*
G01X4105138Y-5637687D02*
G01X4141270Y-5637687D01*
G01X4151270Y-5647687D01*
G01X4151270Y-5668744D01*
G01X4161270Y-5678744D01*
G01X4199106Y-5678744D01*
G01X4209106Y-5668744D01*
G01X4209106Y-5647687D01*
G01X4219106Y-5637687D01*
G01X4255237Y-5637687D01*
G01X4265237Y-5647687D01*
G01X4265237Y-5748439D01*
G01X4255237Y-5758439D01*
G01X4105138Y-5758439D01*
G01X4095138Y-5748439D01*
G01X4095138Y-5647687D01*
G01X4105138Y-5637687D01*
G37*
G36*
G01X4105138Y-5462687D02*
G01X4095138Y-5452687D01*
G01X4095138Y-5351935D01*
G01X4105138Y-5341935D01*
G01X4255237Y-5341935D01*
G01X4265237Y-5351935D01*
G01X4265237Y-5452687D01*
G01X4255237Y-5462687D01*
G01X4219106Y-5462687D01*
G01X4209106Y-5452687D01*
G01X4209106Y-5431630D01*
G01X4199106Y-5421630D01*
G01X4161270Y-5421630D01*
G01X4151270Y-5431630D01*
G01X4151270Y-5452687D01*
G01X4141270Y-5462687D01*
G01X4105138Y-5462687D01*
G37*
G36*
G01X4055138Y-4037687D02*
G01X4091270Y-4037687D01*
G01X4101270Y-4047687D01*
G01X4101270Y-4068744D01*
G01X4111270Y-4078744D01*
G01X4149105Y-4078744D01*
G01X4159105Y-4068744D01*
G01X4159105Y-4047687D01*
G01X4169105Y-4037687D01*
G01X4205237Y-4037687D01*
G01X4215237Y-4047687D01*
G01X4215237Y-4148439D01*
G01X4205237Y-4158439D01*
G01X4055138Y-4158439D01*
G01X4045138Y-4148439D01*
G01X4045138Y-4047687D01*
G01X4055138Y-4037687D01*
G37*
G36*
G01X4055138Y-3862686D02*
G01X4045138Y-3852686D01*
G01X4045138Y-3751935D01*
G01X4055138Y-3741935D01*
G01X4205237Y-3741935D01*
G01X4215237Y-3751935D01*
G01X4215237Y-3852686D01*
G01X4205237Y-3862686D01*
G01X4169105Y-3862686D01*
G01X4159105Y-3852686D01*
G01X4159105Y-3831630D01*
G01X4149105Y-3821630D01*
G01X4111270Y-3821630D01*
G01X4101270Y-3831630D01*
G01X4101270Y-3852686D01*
G01X4091270Y-3862686D01*
G01X4055138Y-3862686D01*
G37*
G36*
G01X3705138Y-4037687D02*
G01X3741270Y-4037687D01*
G01X3751270Y-4047687D01*
G01X3751270Y-4068744D01*
G01X3761270Y-4078744D01*
G01X3799105Y-4078744D01*
G01X3809105Y-4068744D01*
G01X3809105Y-4047687D01*
G01X3819105Y-4037687D01*
G01X3855237Y-4037687D01*
G01X3865237Y-4047687D01*
G01X3865237Y-4148439D01*
G01X3855237Y-4158439D01*
G01X3705138Y-4158439D01*
G01X3695138Y-4148439D01*
G01X3695138Y-4047687D01*
G01X3705138Y-4037687D01*
G37*
G36*
G01X3705138Y-3862686D02*
G01X3695138Y-3852686D01*
G01X3695138Y-3751935D01*
G01X3705138Y-3741935D01*
G01X3855237Y-3741935D01*
G01X3865237Y-3751935D01*
G01X3865237Y-3852686D01*
G01X3855237Y-3862686D01*
G01X3819105Y-3862686D01*
G01X3809105Y-3852686D01*
G01X3809105Y-3831630D01*
G01X3799105Y-3821630D01*
G01X3761270Y-3821630D01*
G01X3751270Y-3831630D01*
G01X3751270Y-3852686D01*
G01X3741270Y-3862686D01*
G01X3705138Y-3862686D01*
G37*
G36*
G01X4717688Y-4225236D02*
G01X4717688Y-4189105D01*
G01X4727688Y-4179105D01*
G01X4748745Y-4179105D01*
G01X4758745Y-4169105D01*
G01X4758745Y-4131269D01*
G01X4748745Y-4121269D01*
G01X4727688Y-4121269D01*
G01X4717688Y-4111269D01*
G01X4717688Y-4075138D01*
G01X4727688Y-4065138D01*
G01X4828440Y-4065138D01*
G01X4838440Y-4075138D01*
G01X4838440Y-4225236D01*
G01X4828440Y-4235236D01*
G01X4727688Y-4235236D01*
G01X4717688Y-4225236D01*
G37*
G36*
G01X4542687Y-4225236D02*
G01X4532687Y-4235236D01*
G01X4431936Y-4235236D01*
G01X4421936Y-4225236D01*
G01X4421936Y-4075138D01*
G01X4431936Y-4065138D01*
G01X4532687Y-4065138D01*
G01X4542687Y-4075138D01*
G01X4542687Y-4111269D01*
G01X4532687Y-4121269D01*
G01X4511631Y-4121269D01*
G01X4501631Y-4131269D01*
G01X4501631Y-4169105D01*
G01X4511631Y-4179105D01*
G01X4532687Y-4179105D01*
G01X4542687Y-4189105D01*
G01X4542687Y-4225236D01*
G37*
G36*
G01X4542687Y-3675138D02*
G01X4542687Y-3711269D01*
G01X4532687Y-3721269D01*
G01X4511631Y-3721269D01*
G01X4501631Y-3731269D01*
G01X4501631Y-3769105D01*
G01X4511631Y-3779105D01*
G01X4532687Y-3779105D01*
G01X4542687Y-3789105D01*
G01X4542687Y-3825236D01*
G01X4532687Y-3835236D01*
G01X4431936Y-3835236D01*
G01X4421936Y-3825236D01*
G01X4421936Y-3675138D01*
G01X4431936Y-3665138D01*
G01X4532687Y-3665138D01*
G01X4542687Y-3675138D01*
G37*
G36*
G01X4717688Y-3675138D02*
G01X4727688Y-3665138D01*
G01X4828440Y-3665138D01*
G01X4838440Y-3675138D01*
G01X4838440Y-3825236D01*
G01X4828440Y-3835236D01*
G01X4727688Y-3835236D01*
G01X4717688Y-3825236D01*
G01X4717688Y-3789105D01*
G01X4727688Y-3779105D01*
G01X4748745Y-3779105D01*
G01X4758745Y-3769105D01*
G01X4758745Y-3731269D01*
G01X4748745Y-3721269D01*
G01X4727688Y-3721269D01*
G01X4717688Y-3711269D01*
G01X4717688Y-3675138D01*
G37*
G36*
G01X6084952Y-3567501D02*
G01X6121083Y-3567501D01*
G01X6131083Y-3577501D01*
G01X6131083Y-3598557D01*
G01X6141083Y-3608557D01*
G01X6178919Y-3608557D01*
G01X6188919Y-3598557D01*
G01X6188919Y-3577501D01*
G01X6198919Y-3567501D01*
G01X6235050Y-3567501D01*
G01X6245050Y-3577501D01*
G01X6245050Y-3678252D01*
G01X6235050Y-3688252D01*
G01X6084952Y-3688252D01*
G01X6074952Y-3678252D01*
G01X6074952Y-3577501D01*
G01X6084952Y-3567501D01*
G37*
G36*
G01X6084952Y-3392500D02*
G01X6074952Y-3382500D01*
G01X6074952Y-3281748D01*
G01X6084952Y-3271748D01*
G01X6235050Y-3271748D01*
G01X6245050Y-3281748D01*
G01X6245050Y-3382500D01*
G01X6235050Y-3392500D01*
G01X6198919Y-3392500D01*
G01X6188919Y-3382500D01*
G01X6188919Y-3361443D01*
G01X6178919Y-3351443D01*
G01X6141083Y-3351443D01*
G01X6131083Y-3361443D01*
G01X6131083Y-3382500D01*
G01X6121083Y-3392500D01*
G01X6084952Y-3392500D01*
G37*
G36*
G01X5115002Y-3360498D02*
G01X5120003Y-3355500D01*
G01X5200003Y-3355500D01*
G01X5205002Y-3360498D01*
G01X5205002Y-3440498D01*
G01X5200003Y-3445499D01*
G01X5175800Y-3445499D01*
G01X5175800Y-3408499D01*
G01X5142800Y-3408499D01*
G01X5142800Y-3445499D01*
G01X5120003Y-3445499D01*
G01X5115002Y-3440498D01*
G01X5115002Y-3360498D01*
G37*
G36*
G01X5204999Y-3599502D02*
G01X5199998Y-3604501D01*
G01X5119998Y-3604501D01*
G01X5115000Y-3599502D01*
G01X5115000Y-3519502D01*
G01X5119998Y-3514501D01*
G01X5144202Y-3514501D01*
G01X5144202Y-3551501D01*
G01X5177202Y-3551501D01*
G01X5177202Y-3514501D01*
G01X5199998Y-3514501D01*
G01X5204999Y-3519502D01*
G01X5204999Y-3599502D01*
G37*
G36*
G01X5405000Y-3599502D02*
G01X5399998Y-3604501D01*
G01X5319999Y-3604501D01*
G01X5315000Y-3599502D01*
G01X5315000Y-3519502D01*
G01X5319999Y-3514501D01*
G01X5344202Y-3514501D01*
G01X5344202Y-3551501D01*
G01X5377202Y-3551501D01*
G01X5377202Y-3514501D01*
G01X5399998Y-3514501D01*
G01X5405000Y-3519502D01*
G01X5405000Y-3599502D01*
G37*
G36*
G01X5315002Y-3360498D02*
G01X5320004Y-3355500D01*
G01X5400003Y-3355500D01*
G01X5405002Y-3360498D01*
G01X5405002Y-3440498D01*
G01X5400003Y-3445499D01*
G01X5375800Y-3445499D01*
G01X5375800Y-3408499D01*
G01X5342800Y-3408499D01*
G01X5342800Y-3445499D01*
G01X5320004Y-3445499D01*
G01X5315002Y-3440498D01*
G01X5315002Y-3360498D01*
G37*

G04 Pad Start*
G54D10*
G01X4180188Y-4530198D03*
G01X4180188Y-4970176D03*
G01X3730188Y-4530198D03*
G01X3730188Y-4970176D03*
G54D11*
G01X2410001Y-3216500D03*
G01X2410001Y-3543500D03*
G54D12*
G01X2060002Y-9380000D03*
G01X3759999Y-9380000D03*
G01X7259999Y-9380000D03*
G01X5560003Y-9380000D03*
G54D13*
G01X3634996Y-2780000D03*
G01X4685006Y-2780000D03*
G54D14*
G01X4489688Y-5010181D03*
G01X4616688Y-5010181D03*
G01X4743688Y-5010181D03*
G01X4870688Y-5010181D03*
G01X4489688Y-4490193D03*
G01X4616688Y-4490193D03*
G01X4743688Y-4490193D03*
G01X4870688Y-4490193D03*
G54D15*
G01X2960001Y-2525670D03*
G54D17*
G01X2706001Y-3234330D03*
G01X2833001Y-3234330D03*
G01X2960001Y-3234330D03*
G01X3087001Y-3234330D03*
G01X3214001Y-3234330D03*
G04 Pad End*

M02*

